<?xml version="1.0" encoding="UTF-8" standalone="no"?>
<svg xmlns="http://www.w3.org/2000/svg" height="340" version="1.1" viewBox="0 0 473 340" width="473">
   <path d="M367,30 H427" fill="none" stroke="#000000" stroke-linecap="square" stroke-width="3"/>
   <path d="M367,120 H427" fill="none" stroke="#000000" stroke-linecap="square" stroke-width="3"/>
   <path d="M367,210 H427" fill="none" stroke="#000000" stroke-linecap="square" stroke-width="3"/>
   <path d="M367,310 H427" fill="none" stroke="#000000" stroke-linecap="square" stroke-width="3"/>
   <path d="M317,290 H137 V160 H177" fill="none" stroke="#000000" stroke-linecap="square" stroke-width="3"/>
   <path d="M317,10 H207 V190 H317" fill="none" stroke="#000000" stroke-linecap="square" stroke-width="3"/>
   <path d="M317,50 H237 V140 H317" fill="none" stroke="#000000" stroke-linecap="square" stroke-width="3"/>
   <path d="M237,140 V200 H207" fill="none" stroke="#000000" stroke-linecap="square" stroke-width="3"/>
   <path d="M117,230 H317" fill="none" stroke="#000000" stroke-linecap="square" stroke-width="3"/>
   <path d="M177,200 H117 V330 H317" fill="none" stroke="#000000" stroke-linecap="square" stroke-width="3"/>
   <path d="M47,200 H117" fill="none" stroke="#000000" stroke-linecap="square" stroke-width="3"/>
   <path d="M317,100 H137 V160 H47" fill="none" stroke="#000000" stroke-linecap="square" stroke-width="3"/>
   <circle cx="207" cy="160" fill="#000000" r="5" stroke="none" stroke-width="3"/>
   <circle cx="117" cy="200" fill="#000000" r="5" stroke="none" stroke-width="3"/>
   <circle cx="137" cy="160" fill="#000000" r="5" stroke="none" stroke-width="3"/>
   <circle cx="237" cy="140" fill="#000000" r="5" stroke="none" stroke-width="3"/>
   <circle cx="117" cy="230" fill="#000000" r="5" stroke="none" stroke-width="3"/>
   <circle cx="438" cy="31" fill="none" r="9" stroke="#000000" stroke-width="2"/>
   <text fill="#000000" font-family="sans-serif" font-size="12" x="431" y="37">x1</text>
   <text fill="#000000" font-family="sans-serif" font-size="16" font-weight="bold" x="449" y="38">Y0</text>
   <circle cx="427" cy="30" fill="#000000" r="2" stroke="none" stroke-width="2"/>
   <circle cx="438" cy="121" fill="none" r="9" stroke="#000000" stroke-width="2"/>
   <text fill="#000000" font-family="sans-serif" font-size="12" x="431" y="127">x1</text>
   <text fill="#000000" font-family="sans-serif" font-size="16" font-weight="bold" x="449" y="128">Y1</text>
   <circle cx="427" cy="120" fill="#000000" r="2" stroke="none" stroke-width="2"/>
   <circle cx="438" cy="211" fill="none" r="9" stroke="#000000" stroke-width="2"/>
   <text fill="#000000" font-family="sans-serif" font-size="12" x="431" y="217">x1</text>
   <text fill="#000000" font-family="sans-serif" font-size="16" font-weight="bold" x="449" y="218">Y2</text>
   <circle cx="427" cy="210" fill="#000000" r="2" stroke="none" stroke-width="2"/>
   <circle cx="438" cy="311" fill="none" r="9" stroke="#000000" stroke-width="2"/>
   <text fill="#000000" font-family="sans-serif" font-size="12" x="431" y="317">x1</text>
   <text fill="#000000" font-family="sans-serif" font-size="16" font-weight="bold" x="449" y="318">Y3</text>
   <circle cx="427" cy="310" fill="#000000" r="2" stroke="none" stroke-width="2"/>
   <rect fill="none" height="18" stroke="#000000" stroke-linecap="square" stroke-width="2" width="18" x="29" y="152"/>
   <text fill="#000000" font-family="sans-serif" font-size="12" x="31" y="167">x1</text>
   <text fill="#000000" font-family="sans-serif" font-size="16" font-weight="bold" x="5" y="168">A0</text>
   <circle cx="47" cy="160" fill="#000000" r="2" stroke="none" stroke-width="2"/>
   <rect fill="none" height="18" stroke="#000000" stroke-linecap="square" stroke-width="2" width="18" x="29" y="192"/>
   <text fill="#000000" font-family="sans-serif" font-size="12" x="31" y="207">x1</text>
   <text fill="#000000" font-family="sans-serif" font-size="16" font-weight="bold" x="5" y="208">A1</text>
   <circle cx="47" cy="200" fill="#000000" r="2" stroke="none" stroke-width="2"/>
   <path d="M197,160 L178,153 V167 L197,160" fill="none" stroke="#000000" stroke-linecap="square" stroke-width="2"/>
   <circle cx="202" cy="160" fill="none" r="4.5" stroke="#000000" stroke-width="2"/>
   <circle cx="207" cy="160" fill="#000000" r="2" stroke="none" stroke-width="2"/>
   <circle cx="177" cy="160" fill="#000000" r="2" stroke="none" stroke-width="2"/>
   <path d="M197,200 L178,193 V207 L197,200" fill="none" stroke="#000000" stroke-linecap="square" stroke-width="2"/>
   <circle cx="202" cy="200" fill="none" r="4.5" stroke="#000000" stroke-width="2"/>
   <circle cx="207" cy="200" fill="#000000" r="2" stroke="none" stroke-width="2"/>
   <circle cx="177" cy="200" fill="#000000" r="2" stroke="none" stroke-width="2"/>
   <path d="M342,55 A25,25 90 0,0 342,5" fill="none" stroke="#000000" stroke-width="2"/>
   <path d="M342,5 H318 V55 H342" fill="none" stroke="#000000" stroke-linecap="square" stroke-width="2"/>
   <path d="M342,145 A25,25 90 0,0 342,95" fill="none" stroke="#000000" stroke-width="2"/>
   <path d="M342,95 H318 V145 H342" fill="none" stroke="#000000" stroke-linecap="square" stroke-width="2"/>
   <path d="M342,235 A25,25 90 0,0 342,185" fill="none" stroke="#000000" stroke-width="2"/>
   <path d="M342,185 H318 V235 H342" fill="none" stroke="#000000" stroke-linecap="square" stroke-width="2"/>
   <path d="M342,335 A25,25 90 0,0 342,285" fill="none" stroke="#000000" stroke-width="2"/>
   <path d="M342,285 H318 V335 H342" fill="none" stroke="#000000" stroke-linecap="square" stroke-width="2"/>
</svg>
