<?xml version="1.0" encoding="UTF-8" standalone="no"?>
<svg xmlns="http://www.w3.org/2000/svg" height="533" version="1.1" viewBox="0 0 583 533" width="583">
   <path d="M377,56 H407 V136 H447" fill="none" stroke="#000000" stroke-linecap="square" stroke-width="3"/>
   <path d="M377,296 H407 V376 H447" fill="none" stroke="#000000" stroke-linecap="square" stroke-width="3"/>
   <path d="M67,16 V256 H157" fill="none" stroke="#000000" stroke-linecap="square" stroke-width="3"/>
   <path d="M287,176 H447" fill="none" stroke="#000000" stroke-linecap="square" stroke-width="3"/>
   <path d="M47,16 H167" fill="none" stroke="#000000" stroke-linecap="square" stroke-width="3"/>
   <path d="M497,36 H537" fill="none" stroke="#000000" stroke-linecap="square" stroke-width="3"/>
   <path d="M497,96 H537" fill="none" stroke="#000000" stroke-linecap="square" stroke-width="3"/>
   <path d="M497,156 H537" fill="none" stroke="#000000" stroke-linecap="square" stroke-width="3"/>
   <path d="M497,216 H537" fill="none" stroke="#000000" stroke-linecap="square" stroke-width="3"/>
   <path d="M497,276 H537" fill="none" stroke="#000000" stroke-linecap="square" stroke-width="3"/>
   <path d="M497,336 H537" fill="none" stroke="#000000" stroke-linecap="square" stroke-width="3"/>
   <path d="M497,396 H537" fill="none" stroke="#000000" stroke-linecap="square" stroke-width="3"/>
   <path d="M497,456 H537" fill="none" stroke="#000000" stroke-linecap="square" stroke-width="3"/>
   <path d="M47,276 H157" fill="none" stroke="#000000" stroke-linecap="square" stroke-width="3"/>
   <path d="M47,516 H147" fill="none" stroke="#000000" stroke-linecap="square" stroke-width="3"/>
   <path d="M377,36 H417 V76 H447" fill="none" stroke="#000000" stroke-linecap="square" stroke-width="3"/>
   <path d="M377,276 H417 V316 H447" fill="none" stroke="#000000" stroke-linecap="square" stroke-width="3"/>
   <path d="M447,476 H427 V516 H147 V176 H257" fill="none" stroke="#000000" stroke-linecap="square" stroke-width="3"/>
   <path d="M157,36 H117 V276" fill="none" stroke="#000000" stroke-linecap="square" stroke-width="3"/>
   <path d="M447,56 H427 V116 H447" fill="none" stroke="#000000" stroke-linecap="square" stroke-width="3"/>
   <path d="M427,116 V236 H447" fill="none" stroke="#000000" stroke-linecap="square" stroke-width="3"/>
   <path d="M447,296 H427 V356 H447" fill="none" stroke="#000000" stroke-linecap="square" stroke-width="3"/>
   <path d="M427,356 V416 H447" fill="none" stroke="#000000" stroke-linecap="square" stroke-width="3"/>
   <path d="M427,416 V476" fill="none" stroke="#000000" stroke-linecap="square" stroke-width="3"/>
   <path d="M377,16 H447" fill="none" stroke="#000000" stroke-linecap="square" stroke-width="3"/>
   <path d="M377,256 H447" fill="none" stroke="#000000" stroke-linecap="square" stroke-width="3"/>
   <path d="M377,76 H397 V196 H447" fill="none" stroke="#000000" stroke-linecap="square" stroke-width="3"/>
   <path d="M377,316 H397 V436 H447" fill="none" stroke="#000000" stroke-linecap="square" stroke-width="3"/>
   <circle cx="427" cy="476" fill="#000000" r="5" stroke="none" stroke-width="3"/>
   <circle cx="157" cy="16" fill="#000000" r="5" stroke="none" stroke-width="3"/>
   <circle cx="427" cy="356" fill="#000000" r="5" stroke="none" stroke-width="3"/>
   <circle cx="427" cy="116" fill="#000000" r="5" stroke="none" stroke-width="3"/>
   <circle cx="67" cy="16" fill="#000000" r="5" stroke="none" stroke-width="3"/>
   <circle cx="117" cy="276" fill="#000000" r="5" stroke="none" stroke-width="3"/>
   <circle cx="147" cy="516" fill="#000000" r="5" stroke="none" stroke-width="3"/>
   <circle cx="427" cy="416" fill="#000000" r="5" stroke="none" stroke-width="3"/>
   <circle cx="427" cy="176" fill="#000000" r="5" stroke="none" stroke-width="3"/>
   <circle cx="548" cy="37" fill="none" r="9" stroke="#000000" stroke-width="2"/>
   <text fill="#000000" font-family="sans-serif" font-size="12" x="541" y="43">x1</text>
   <text fill="#000000" font-family="sans-serif" font-size="16" font-weight="bold" x="559" y="44">Y0</text>
   <circle cx="537" cy="36" fill="#000000" r="2" stroke="none" stroke-width="2"/>
   <circle cx="548" cy="97" fill="none" r="9" stroke="#000000" stroke-width="2"/>
   <text fill="#000000" font-family="sans-serif" font-size="12" x="541" y="103">x1</text>
   <text fill="#000000" font-family="sans-serif" font-size="16" font-weight="bold" x="559" y="104">Y1</text>
   <circle cx="537" cy="96" fill="#000000" r="2" stroke="none" stroke-width="2"/>
   <circle cx="548" cy="157" fill="none" r="9" stroke="#000000" stroke-width="2"/>
   <text fill="#000000" font-family="sans-serif" font-size="12" x="541" y="163">x1</text>
   <text fill="#000000" font-family="sans-serif" font-size="16" font-weight="bold" x="559" y="164">Y2</text>
   <circle cx="537" cy="156" fill="#000000" r="2" stroke="none" stroke-width="2"/>
   <circle cx="548" cy="217" fill="none" r="9" stroke="#000000" stroke-width="2"/>
   <text fill="#000000" font-family="sans-serif" font-size="12" x="541" y="223">x1</text>
   <text fill="#000000" font-family="sans-serif" font-size="16" font-weight="bold" x="559" y="224">Y3</text>
   <circle cx="537" cy="216" fill="#000000" r="2" stroke="none" stroke-width="2"/>
   <circle cx="548" cy="277" fill="none" r="9" stroke="#000000" stroke-width="2"/>
   <text fill="#000000" font-family="sans-serif" font-size="12" x="541" y="283">x1</text>
   <text fill="#000000" font-family="sans-serif" font-size="16" font-weight="bold" x="559" y="284">Y4</text>
   <circle cx="537" cy="276" fill="#000000" r="2" stroke="none" stroke-width="2"/>
   <circle cx="548" cy="337" fill="none" r="9" stroke="#000000" stroke-width="2"/>
   <text fill="#000000" font-family="sans-serif" font-size="12" x="541" y="343">x1</text>
   <text fill="#000000" font-family="sans-serif" font-size="16" font-weight="bold" x="559" y="344">Y5</text>
   <circle cx="537" cy="336" fill="#000000" r="2" stroke="none" stroke-width="2"/>
   <circle cx="548" cy="397" fill="none" r="9" stroke="#000000" stroke-width="2"/>
   <text fill="#000000" font-family="sans-serif" font-size="12" x="541" y="403">x1</text>
   <text fill="#000000" font-family="sans-serif" font-size="16" font-weight="bold" x="559" y="404">Y6</text>
   <circle cx="537" cy="396" fill="#000000" r="2" stroke="none" stroke-width="2"/>
   <circle cx="548" cy="457" fill="none" r="9" stroke="#000000" stroke-width="2"/>
   <text fill="#000000" font-family="sans-serif" font-size="12" x="541" y="463">x1</text>
   <text fill="#000000" font-family="sans-serif" font-size="16" font-weight="bold" x="559" y="464">Y7</text>
   <circle cx="537" cy="456" fill="#000000" r="2" stroke="none" stroke-width="2"/>
   <rect fill="none" height="18" stroke="#000000" stroke-linecap="square" stroke-width="2" width="18" x="29" y="8"/>
   <text fill="#000000" font-family="sans-serif" font-size="12" x="31" y="23">x1</text>
   <text fill="#000000" font-family="sans-serif" font-size="16" font-weight="bold" x="5" y="24">A0</text>
   <circle cx="47" cy="16" fill="#000000" r="2" stroke="none" stroke-width="2"/>
   <rect fill="none" height="18" stroke="#000000" stroke-linecap="square" stroke-width="2" width="18" x="29" y="268"/>
   <text fill="#000000" font-family="sans-serif" font-size="12" x="31" y="283">x1</text>
   <text fill="#000000" font-family="sans-serif" font-size="16" font-weight="bold" x="5" y="284">A1</text>
   <circle cx="47" cy="276" fill="#000000" r="2" stroke="none" stroke-width="2"/>
   <rect fill="none" height="18" stroke="#000000" stroke-linecap="square" stroke-width="2" width="18" x="29" y="508"/>
   <text fill="#000000" font-family="sans-serif" font-size="12" x="31" y="523">x1</text>
   <text fill="#000000" font-family="sans-serif" font-size="16" font-weight="bold" x="5" y="524">A2</text>
   <circle cx="47" cy="516" fill="#000000" r="2" stroke="none" stroke-width="2"/>
   <path d="M277,176 L258,169 V183 L277,176" fill="none" stroke="#000000" stroke-linecap="square" stroke-width="2"/>
   <circle cx="282" cy="176" fill="none" r="4.5" stroke="#000000" stroke-width="2"/>
   <circle cx="287" cy="176" fill="#000000" r="2" stroke="none" stroke-width="2"/>
   <circle cx="257" cy="176" fill="#000000" r="2" stroke="none" stroke-width="2"/>
   <path d="M472,61 A25,25 90 0,0 472,11" fill="none" stroke="#000000" stroke-width="2"/>
   <path d="M472,11 H448 V61 H472" fill="none" stroke="#000000" stroke-linecap="square" stroke-width="2"/>
   <path d="M472,121 A25,25 90 0,0 472,71" fill="none" stroke="#000000" stroke-width="2"/>
   <path d="M472,71 H448 V121 H472" fill="none" stroke="#000000" stroke-linecap="square" stroke-width="2"/>
   <path d="M472,181 A25,25 90 0,0 472,131" fill="none" stroke="#000000" stroke-width="2"/>
   <path d="M472,131 H448 V181 H472" fill="none" stroke="#000000" stroke-linecap="square" stroke-width="2"/>
   <path d="M472,241 A25,25 90 0,0 472,191" fill="none" stroke="#000000" stroke-width="2"/>
   <path d="M472,191 H448 V241 H472" fill="none" stroke="#000000" stroke-linecap="square" stroke-width="2"/>
   <path d="M472,301 A25,25 90 0,0 472,251" fill="none" stroke="#000000" stroke-width="2"/>
   <path d="M472,251 H448 V301 H472" fill="none" stroke="#000000" stroke-linecap="square" stroke-width="2"/>
   <path d="M472,361 A25,25 90 0,0 472,311" fill="none" stroke="#000000" stroke-width="2"/>
   <path d="M472,311 H448 V361 H472" fill="none" stroke="#000000" stroke-linecap="square" stroke-width="2"/>
   <path d="M472,421 A25,25 90 0,0 472,371" fill="none" stroke="#000000" stroke-width="2"/>
   <path d="M472,371 H448 V421 H472" fill="none" stroke="#000000" stroke-linecap="square" stroke-width="2"/>
   <path d="M472,481 A25,25 90 0,0 472,431" fill="none" stroke="#000000" stroke-width="2"/>
   <path d="M472,431 H448 V481 H472" fill="none" stroke="#000000" stroke-linecap="square" stroke-width="2"/>
   <rect fill="#000000" height="3" stroke="none" stroke-linecap="square" stroke-width="1" width="10" x="157" y="15"/>
   <text fill="#404040" font-family="Dialog" font-size="12" x="172" y="20">A0</text>
   <rect fill="#000000" height="3" stroke="none" stroke-linecap="square" stroke-width="1" width="10" x="157" y="35"/>
   <text fill="#404040" font-family="Dialog" font-size="12" x="172" y="40">A1</text>
   <rect fill="#000000" height="3" stroke="none" stroke-linecap="square" stroke-width="1" width="10" x="367" y="15"/>
   <text fill="#404040" font-family="Dialog" font-size="12" x="348" y="20">Y0</text>
   <rect fill="#000000" height="3" stroke="none" stroke-linecap="square" stroke-width="1" width="10" x="367" y="35"/>
   <text fill="#404040" font-family="Dialog" font-size="12" x="348" y="40">Y1</text>
   <rect fill="#000000" height="3" stroke="none" stroke-linecap="square" stroke-width="1" width="10" x="367" y="55"/>
   <text fill="#404040" font-family="Dialog" font-size="12" x="348" y="60">Y2</text>
   <rect fill="#000000" height="3" stroke="none" stroke-linecap="square" stroke-width="1" width="10" x="367" y="75"/>
   <text fill="#404040" font-family="Dialog" font-size="12" x="348" y="80">Y3</text>
   <rect fill="#000000" height="20" stroke="none" stroke-linecap="square" stroke-width="1" width="200" x="167" y="86"/>
   <rect fill="none" height="100" stroke="#000000" stroke-linecap="square" stroke-width="2" width="200" x="167" y="6"/>
   <text fill="#FFFFFF" font-family="Dialog" font-size="14" font-weight="bold" x="218" y="100">Decoder_2to4</text>
   <circle cx="157" cy="16" fill="#000000" r="2" stroke="none" stroke-width="1"/>
   <circle cx="157" cy="36" fill="#000000" r="2" stroke="none" stroke-width="1"/>
   <circle cx="377" cy="16" fill="#000000" r="2" stroke="none" stroke-width="1"/>
   <circle cx="377" cy="36" fill="#000000" r="2" stroke="none" stroke-width="1"/>
   <circle cx="377" cy="56" fill="#000000" r="2" stroke="none" stroke-width="1"/>
   <circle cx="377" cy="76" fill="#000000" r="2" stroke="none" stroke-width="1"/>
   <rect fill="#000000" height="3" stroke="none" stroke-linecap="square" stroke-width="1" width="10" x="157" y="255"/>
   <text fill="#404040" font-family="Dialog" font-size="12" x="172" y="260">A0</text>
   <rect fill="#000000" height="3" stroke="none" stroke-linecap="square" stroke-width="1" width="10" x="157" y="275"/>
   <text fill="#404040" font-family="Dialog" font-size="12" x="172" y="280">A1</text>
   <rect fill="#000000" height="3" stroke="none" stroke-linecap="square" stroke-width="1" width="10" x="367" y="255"/>
   <text fill="#404040" font-family="Dialog" font-size="12" x="348" y="260">Y0</text>
   <rect fill="#000000" height="3" stroke="none" stroke-linecap="square" stroke-width="1" width="10" x="367" y="275"/>
   <text fill="#404040" font-family="Dialog" font-size="12" x="348" y="280">Y1</text>
   <rect fill="#000000" height="3" stroke="none" stroke-linecap="square" stroke-width="1" width="10" x="367" y="295"/>
   <text fill="#404040" font-family="Dialog" font-size="12" x="348" y="300">Y2</text>
   <rect fill="#000000" height="3" stroke="none" stroke-linecap="square" stroke-width="1" width="10" x="367" y="315"/>
   <text fill="#404040" font-family="Dialog" font-size="12" x="348" y="320">Y3</text>
   <rect fill="#000000" height="20" stroke="none" stroke-linecap="square" stroke-width="1" width="200" x="167" y="326"/>
   <rect fill="none" height="100" stroke="#000000" stroke-linecap="square" stroke-width="2" width="200" x="167" y="246"/>
   <text fill="#FFFFFF" font-family="Dialog" font-size="14" font-weight="bold" x="218" y="340">Decoder_2to4</text>
   <circle cx="157" cy="256" fill="#000000" r="2" stroke="none" stroke-width="1"/>
   <circle cx="157" cy="276" fill="#000000" r="2" stroke="none" stroke-width="1"/>
   <circle cx="377" cy="256" fill="#000000" r="2" stroke="none" stroke-width="1"/>
   <circle cx="377" cy="276" fill="#000000" r="2" stroke="none" stroke-width="1"/>
   <circle cx="377" cy="296" fill="#000000" r="2" stroke="none" stroke-width="1"/>
   <circle cx="377" cy="316" fill="#000000" r="2" stroke="none" stroke-width="1"/>
</svg>
