<?xml version="1.0" encoding="UTF-8" standalone="no"?>
<svg xmlns="http://www.w3.org/2000/svg" height="152" version="1.1" viewBox="0 0 365 152" width="365">
   <path d="M48,15 H138" fill="none" stroke="#000000" stroke-linecap="square" stroke-width="3"/>
   <path d="M48,135 H138" fill="none" stroke="#000000" stroke-linecap="square" stroke-width="3"/>
   <path d="M118,55 H138" fill="none" stroke="#000000" stroke-linecap="square" stroke-width="3"/>
   <path d="M308,75 H328" fill="none" stroke="#000000" stroke-linecap="square" stroke-width="3"/>
   <path d="M88,55 H68 V75 H48" fill="none" stroke="#000000" stroke-linecap="square" stroke-width="3"/>
   <path d="M68,75 V95 H138" fill="none" stroke="#000000" stroke-linecap="square" stroke-width="3"/>
   <circle cx="68" cy="75" fill="#000000" r="5" stroke="none" stroke-width="3"/>
   <rect fill="none" height="18" stroke="#000000" stroke-linecap="square" stroke-width="2" width="18" x="30" y="7"/>
   <text fill="#000000" font-family="sans-serif" font-size="12" x="32" y="22">x1</text>
   <text fill="#000000" font-family="sans-serif" font-size="16" font-weight="bold" x="5" y="23">D0</text>
   <circle cx="48" cy="15" fill="#000000" r="2" stroke="none" stroke-width="2"/>
   <rect fill="none" height="18" stroke="#000000" stroke-linecap="square" stroke-width="2" width="18" x="30" y="67"/>
   <text fill="#000000" font-family="sans-serif" font-size="12" x="32" y="82">x1</text>
   <text fill="#000000" font-family="sans-serif" font-size="16" font-weight="bold" x="15" y="83">S</text>
   <circle cx="48" cy="75" fill="#000000" r="2" stroke="none" stroke-width="2"/>
   <rect fill="none" height="18" stroke="#000000" stroke-linecap="square" stroke-width="2" width="18" x="30" y="127"/>
   <text fill="#000000" font-family="sans-serif" font-size="12" x="32" y="142">x1</text>
   <text fill="#000000" font-family="sans-serif" font-size="16" font-weight="bold" x="5" y="143">D1</text>
   <circle cx="48" cy="135" fill="#000000" r="2" stroke="none" stroke-width="2"/>
   <circle cx="339" cy="76" fill="none" r="9" stroke="#000000" stroke-width="2"/>
   <text fill="#000000" font-family="sans-serif" font-size="12" x="332" y="82">x1</text>
   <text fill="#000000" font-family="sans-serif" font-size="16" font-weight="bold" x="350" y="83">Y</text>
   <circle cx="328" cy="75" fill="#000000" r="2" stroke="none" stroke-width="2"/>
   <path d="M108,55 L89,48 V62 L108,55" fill="none" stroke="#000000" stroke-linecap="square" stroke-width="2"/>
   <circle cx="113" cy="55" fill="none" r="4.5" stroke="#000000" stroke-width="2"/>
   <circle cx="118" cy="55" fill="#000000" r="2" stroke="none" stroke-width="2"/>
   <circle cx="88" cy="55" fill="#000000" r="2" stroke="none" stroke-width="2"/>
   <path d="M163,60 A25,25 90 0,0 163,10" fill="none" stroke="#000000" stroke-width="2"/>
   <path d="M163,10 H139 V60 H163" fill="none" stroke="#000000" stroke-linecap="square" stroke-width="2"/>
   <path d="M163,140 A25,25 90 0,0 163,90" fill="none" stroke="#000000" stroke-width="2"/>
   <path d="M163,90 H139 V140 H163" fill="none" stroke="#000000" stroke-linecap="square" stroke-width="2"/>
   <path d="M188,35 H218 V55 H258" fill="none" stroke="#000000" stroke-linecap="square" stroke-width="3"/>
   <path d="M188,115 H218 V95 H258" fill="none" stroke="#000000" stroke-linecap="square" stroke-width="3"/>
   <path d="M308,75 Q288,50 258,50 Q271,75 258,100 Q288,100 308,75 Z" fill="none" stroke="#000000" stroke-linecap="square" stroke-width="2"/>
</svg>
