<?xml version="1.0" encoding="UTF-8" standalone="no"?>
<svg xmlns="http://www.w3.org/2000/svg" height="265" version="1.1" viewBox="0 0 477 265" width="477">
   <path d="M373,195 H413" fill="none" stroke="#000000" stroke-linecap="square" stroke-width="3"/>
   <path d="M163,95 V175 H203" fill="none" stroke="#000000" stroke-linecap="square" stroke-width="3"/>
   <path d="M53,55 H83 V255 H113" fill="none" stroke="#000000" stroke-linecap="square" stroke-width="3"/>
   <path d="M163,35 H183" fill="none" stroke="#000000" stroke-linecap="square" stroke-width="3"/>
   <path d="M263,55 H413" fill="none" stroke="#000000" stroke-linecap="square" stroke-width="3"/>
   <path d="M53,15 H73" fill="none" stroke="#000000" stroke-linecap="square" stroke-width="3"/>
   <circle cx="83" cy="55" fill="#000000" r="5" stroke="none" stroke-width="3"/>
   <circle cx="183" cy="35" fill="#000000" r="5" stroke="none" stroke-width="3"/>
   <circle cx="163" cy="95" fill="#000000" r="5" stroke="none" stroke-width="3"/>
   <circle cx="73" cy="15" fill="#000000" r="5" stroke="none" stroke-width="3"/>
   <path d="M113,215 H73 V15 H105" fill="none" stroke="#000000" stroke-linecap="square" stroke-width="3"/>
   <path d="M83,55 H105" fill="none" stroke="#000000" stroke-linecap="square" stroke-width="3"/>
   <path d="M163,35 Q143,10 113,10 Q126,35 113,60 Q143,60 163,35 Z" fill="none" stroke="#000000" stroke-linecap="square" stroke-width="2"/>
   <path d="M103,10 Q116,35 103,60" fill="none" stroke="#000000" stroke-linecap="square" stroke-width="2"/>
   <rect fill="none" height="18" stroke="#000000" stroke-linecap="square" stroke-width="2" width="18" x="35" y="7"/>
   <text fill="#000000" font-family="sans-serif" font-size="12" x="37" y="22">x1</text>
   <text fill="#000000" font-family="sans-serif" font-size="16" font-weight="bold" x="20" y="23">A</text>
   <circle cx="53" cy="15" fill="#000000" r="2" stroke="none" stroke-width="2"/>
   <rect fill="none" height="18" stroke="#000000" stroke-linecap="square" stroke-width="2" width="18" x="35" y="47"/>
   <text fill="#000000" font-family="sans-serif" font-size="12" x="37" y="62">x1</text>
   <text fill="#000000" font-family="sans-serif" font-size="16" font-weight="bold" x="19" y="63">B</text>
   <circle cx="53" cy="55" fill="#000000" r="2" stroke="none" stroke-width="2"/>
   <path d="M203,135 H183 V35 H205" fill="none" stroke="#000000" stroke-linecap="square" stroke-width="3"/>
   <path d="M53,95 H163 V75 H205" fill="none" stroke="#000000" stroke-linecap="square" stroke-width="3"/>
   <path d="M263,55 Q243,30 213,30 Q226,55 213,80 Q243,80 263,55 Z" fill="none" stroke="#000000" stroke-linecap="square" stroke-width="2"/>
   <path d="M203,30 Q216,55 203,80" fill="none" stroke="#000000" stroke-linecap="square" stroke-width="2"/>
   <rect fill="none" height="18" stroke="#000000" stroke-linecap="square" stroke-width="2" width="18" x="35" y="87"/>
   <text fill="#000000" font-family="sans-serif" font-size="12" x="37" y="102">x1</text>
   <text fill="#000000" font-family="sans-serif" font-size="16" font-weight="bold" x="5" y="103">Cin</text>
   <circle cx="53" cy="95" fill="#000000" r="2" stroke="none" stroke-width="2"/>
   <path d="M138,260 A25,25 90 0,0 138,210" fill="none" stroke="#000000" stroke-width="2"/>
   <path d="M138,210 H114 V260 H138" fill="none" stroke="#000000" stroke-linecap="square" stroke-width="2"/>
   <path d="M228,180 A25,25 90 0,0 228,130" fill="none" stroke="#000000" stroke-width="2"/>
   <path d="M228,130 H204 V180 H228" fill="none" stroke="#000000" stroke-linecap="square" stroke-width="2"/>
   <path d="M253,155 H283 V175 H325" fill="none" stroke="#000000" stroke-linecap="square" stroke-width="3"/>
   <path d="M163,235 H283 V215 H325" fill="none" stroke="#000000" stroke-linecap="square" stroke-width="3"/>
   <path d="M373,195 Q353,170 323,170 Q336,195 323,220 Q353,220 373,195 Z" fill="none" stroke="#000000" stroke-linecap="square" stroke-width="2"/>
   <circle cx="424" cy="56" fill="none" r="9" stroke="#000000" stroke-width="2"/>
   <text fill="#000000" font-family="sans-serif" font-size="12" x="417" y="62">x1</text>
   <text fill="#000000" font-family="sans-serif" font-size="16" font-weight="bold" x="435" y="63">S</text>
   <circle cx="413" cy="55" fill="#000000" r="2" stroke="none" stroke-width="2"/>
   <circle cx="424" cy="196" fill="none" r="9" stroke="#000000" stroke-width="2"/>
   <text fill="#000000" font-family="sans-serif" font-size="12" x="417" y="202">x1</text>
   <text fill="#000000" font-family="sans-serif" font-size="16" font-weight="bold" x="435" y="203">Cout</text>
   <circle cx="413" cy="195" fill="#000000" r="2" stroke="none" stroke-width="2"/>
</svg>
