<?xml version="1.0" encoding="UTF-8" standalone="no"?>
<svg xmlns="http://www.w3.org/2000/svg" height="152" version="1.1" viewBox="0 0 248 152" width="248">
   <path d="M179,35 H209" fill="none" stroke="#000000" stroke-linecap="square" stroke-width="3"/>
   <path d="M179,115 H209" fill="none" stroke="#000000" stroke-linecap="square" stroke-width="3"/>
   <path d="M69,135 H129" fill="none" stroke="#000000" stroke-linecap="square" stroke-width="3"/>
   <path d="M39,15 H79 V95 H129" fill="none" stroke="#000000" stroke-linecap="square" stroke-width="3"/>
   <circle cx="79" cy="15" fill="#000000" r="5" stroke="none" stroke-width="3"/>
   <circle cx="69" cy="135" fill="#000000" r="5" stroke="none" stroke-width="3"/>
   <rect fill="none" height="18" stroke="#000000" stroke-linecap="square" stroke-width="2" width="18" x="21" y="127"/>
   <text fill="#000000" font-family="sans-serif" font-size="12" x="23" y="142">x1</text>
   <text fill="#000000" font-family="sans-serif" font-size="16" font-weight="bold" x="5" y="143">B</text>
   <circle cx="39" cy="135" fill="#000000" r="2" stroke="none" stroke-width="2"/>
   <path d="M79,15 H119" fill="none" stroke="#000000" stroke-linecap="square" stroke-width="3"/>
   <path d="M39,135 H69 V55 H119" fill="none" stroke="#000000" stroke-linecap="square" stroke-width="3"/>
   <path d="M179,35 Q159,10 129,10 Q142,35 129,60 Q159,60 179,35 Z" fill="none" stroke="#000000" stroke-linecap="square" stroke-width="2"/>
   <path d="M119,10 Q132,35 119,60" fill="none" stroke="#000000" stroke-linecap="square" stroke-width="2"/>
   <path d="M154,140 A25,25 90 0,0 154,90" fill="none" stroke="#000000" stroke-width="2"/>
   <path d="M154,90 H130 V140 H154" fill="none" stroke="#000000" stroke-linecap="square" stroke-width="2"/>
   <circle cx="220" cy="116" fill="none" r="9" stroke="#000000" stroke-width="2"/>
   <text fill="#000000" font-family="sans-serif" font-size="12" x="213" y="122">x1</text>
   <text fill="#000000" font-family="sans-serif" font-size="16" font-weight="bold" x="231" y="123">C</text>
   <circle cx="209" cy="115" fill="#000000" r="2" stroke="none" stroke-width="2"/>
   <circle cx="220" cy="36" fill="none" r="9" stroke="#000000" stroke-width="2"/>
   <text fill="#000000" font-family="sans-serif" font-size="12" x="213" y="42">x1</text>
   <text fill="#000000" font-family="sans-serif" font-size="16" font-weight="bold" x="231" y="43">S</text>
   <circle cx="209" cy="35" fill="#000000" r="2" stroke="none" stroke-width="2"/>
   <rect fill="none" height="18" stroke="#000000" stroke-linecap="square" stroke-width="2" width="18" x="21" y="7"/>
   <text fill="#000000" font-family="sans-serif" font-size="12" x="23" y="22">x1</text>
   <text fill="#000000" font-family="sans-serif" font-size="16" font-weight="bold" x="6" y="23">A</text>
   <circle cx="39" cy="15" fill="#000000" r="2" stroke="none" stroke-width="2"/>
</svg>
