<?xml version="1.0" encoding="UTF-8" standalone="no"?>
<svg xmlns="http://www.w3.org/2000/svg" height="464" version="1.1" viewBox="0 0 497 464" width="497">
   <path d="M403,388 H433" fill="none" stroke="#000000" stroke-linecap="square" stroke-width="3"/>
   <path d="M403,268 H433" fill="none" stroke="#000000" stroke-linecap="square" stroke-width="3"/>
   <path d="M403,148 H433" fill="none" stroke="#000000" stroke-linecap="square" stroke-width="3"/>
   <path d="M403,408 H433" fill="none" stroke="#000000" stroke-linecap="square" stroke-width="3"/>
   <path d="M403,28 H433" fill="none" stroke="#000000" stroke-linecap="square" stroke-width="3"/>
   <path d="M53,88 H73" fill="none" stroke="#000000" stroke-linecap="square" stroke-width="3"/>
   <path d="M53,28 H73" fill="none" stroke="#000000" stroke-linecap="square" stroke-width="3"/>
   <path d="M53,268 H73" fill="none" stroke="#000000" stroke-linecap="square" stroke-width="3"/>
   <path d="M53,208 H73" fill="none" stroke="#000000" stroke-linecap="square" stroke-width="3"/>
   <path d="M53,148 H73" fill="none" stroke="#000000" stroke-linecap="square" stroke-width="3"/>
   <path d="M53,118 H73" fill="none" stroke="#000000" stroke-linecap="square" stroke-width="3"/>
   <path d="M53,58 H73" fill="none" stroke="#000000" stroke-linecap="square" stroke-width="3"/>
   <path d="M53,238 H73" fill="none" stroke="#000000" stroke-linecap="square" stroke-width="3"/>
   <path d="M53,178 H73" fill="none" stroke="#000000" stroke-linecap="square" stroke-width="3"/>
   <path d="M163,408 H183" fill="none" stroke="#000000" stroke-linecap="square" stroke-width="3"/>
   <path d="M163,288 H183" fill="none" stroke="#000000" stroke-linecap="square" stroke-width="3"/>
   <path d="M163,168 H183" fill="none" stroke="#000000" stroke-linecap="square" stroke-width="3"/>
   <path d="M163,48 H183" fill="none" stroke="#000000" stroke-linecap="square" stroke-width="3"/>
   <path d="M403,48 H423 V118 H173 V148 H183" fill="none" stroke="#000000" stroke-linecap="square" stroke-width="3"/>
   <path d="M163,198 H173 V188 H183" fill="none" stroke="#000000" stroke-linecap="square" stroke-width="3"/>
   <path d="M163,18 H173 V28 H183" fill="none" stroke="#000000" stroke-linecap="square" stroke-width="3"/>
   <path d="M163,78 H173 V68 H183" fill="none" stroke="#000000" stroke-linecap="square" stroke-width="3"/>
   <path d="M403,168 H423 V238 H173 V268 H183" fill="none" stroke="#000000" stroke-linecap="square" stroke-width="3"/>
   <path d="M163,438 H173 V428 H183" fill="none" stroke="#000000" stroke-linecap="square" stroke-width="3"/>
   <path d="M163,318 H173 V308 H183" fill="none" stroke="#000000" stroke-linecap="square" stroke-width="3"/>
   <path d="M403,288 H423 V358 H173 V388 H183" fill="none" stroke="#000000" stroke-linecap="square" stroke-width="3"/>
   <text fill="#000000" font-family="sans-serif" font-size="16" font-weight="bold" x="78" y="214">B1</text>
   <path d="M77,195 H102 V222 H77 V218 L73,208 L77,198 Z" fill="none" stroke="#000000" stroke-linecap="square" stroke-width="2"/>
   <circle cx="73" cy="208" fill="#000000" r="2" stroke="none" stroke-width="2"/>
   <rect fill="none" height="18" stroke="#000000" stroke-linecap="square" stroke-width="2" width="18" x="35" y="260"/>
   <text fill="#000000" font-family="sans-serif" font-size="12" x="37" y="275">x1</text>
   <text fill="#000000" font-family="sans-serif" font-size="16" font-weight="bold" x="10" y="276">B3</text>
   <circle cx="53" cy="268" fill="#000000" r="2" stroke="none" stroke-width="2"/>
   <text fill="#000000" font-family="sans-serif" font-size="16" font-weight="bold" x="78" y="34">Cin</text>
   <path d="M77,15 H107 V42 H77 V38 L73,28 L77,18 Z" fill="none" stroke="#000000" stroke-linecap="square" stroke-width="2"/>
   <circle cx="73" cy="28" fill="#000000" r="2" stroke="none" stroke-width="2"/>
   <rect fill="none" height="18" stroke="#000000" stroke-linecap="square" stroke-width="2" width="18" x="35" y="170"/>
   <text fill="#000000" font-family="sans-serif" font-size="12" x="37" y="185">x1</text>
   <text fill="#000000" font-family="sans-serif" font-size="16" font-weight="bold" x="10" y="186">B0</text>
   <circle cx="53" cy="178" fill="#000000" r="2" stroke="none" stroke-width="2"/>
   <rect fill="#000000" height="3" stroke="none" stroke-linecap="square" stroke-width="1" width="10" x="183" y="147"/>
   <text fill="#404040" font-family="Dialog" font-size="12" x="198" y="152">Cin</text>
   <rect fill="#000000" height="3" stroke="none" stroke-linecap="square" stroke-width="1" width="10" x="183" y="167"/>
   <text fill="#404040" font-family="Dialog" font-size="12" x="198" y="172">A</text>
   <rect fill="#000000" height="3" stroke="none" stroke-linecap="square" stroke-width="1" width="10" x="183" y="187"/>
   <text fill="#404040" font-family="Dialog" font-size="12" x="198" y="192">B</text>
   <rect fill="#000000" height="3" stroke="none" stroke-linecap="square" stroke-width="1" width="10" x="393" y="147"/>
   <text fill="#404040" font-family="Dialog" font-size="12" x="380" y="152">S</text>
   <rect fill="#000000" height="3" stroke="none" stroke-linecap="square" stroke-width="1" width="10" x="393" y="167"/>
   <text fill="#404040" font-family="Dialog" font-size="12" x="362" y="172">Cout</text>
   <rect fill="#000000" height="20" stroke="none" stroke-linecap="square" stroke-width="1" width="200" x="193" y="198"/>
   <rect fill="none" height="80" stroke="#000000" stroke-linecap="square" stroke-width="2" width="200" x="193" y="138"/>
   <text fill="#FFFFFF" font-family="Dialog" font-size="14" font-weight="bold" x="255" y="212">Full_Adder</text>
   <circle cx="183" cy="148" fill="#000000" r="2" stroke="none" stroke-width="1"/>
   <circle cx="183" cy="168" fill="#000000" r="2" stroke="none" stroke-width="1"/>
   <circle cx="183" cy="188" fill="#000000" r="2" stroke="none" stroke-width="1"/>
   <circle cx="403" cy="148" fill="#000000" r="2" stroke="none" stroke-width="1"/>
   <circle cx="403" cy="168" fill="#000000" r="2" stroke="none" stroke-width="1"/>
   <rect fill="#000000" height="3" stroke="none" stroke-linecap="square" stroke-width="1" width="10" x="183" y="267"/>
   <text fill="#404040" font-family="Dialog" font-size="12" x="198" y="272">Cin</text>
   <rect fill="#000000" height="3" stroke="none" stroke-linecap="square" stroke-width="1" width="10" x="183" y="287"/>
   <text fill="#404040" font-family="Dialog" font-size="12" x="198" y="292">A</text>
   <rect fill="#000000" height="3" stroke="none" stroke-linecap="square" stroke-width="1" width="10" x="183" y="307"/>
   <text fill="#404040" font-family="Dialog" font-size="12" x="198" y="312">B</text>
   <rect fill="#000000" height="3" stroke="none" stroke-linecap="square" stroke-width="1" width="10" x="393" y="267"/>
   <text fill="#404040" font-family="Dialog" font-size="12" x="380" y="272">S</text>
   <rect fill="#000000" height="3" stroke="none" stroke-linecap="square" stroke-width="1" width="10" x="393" y="287"/>
   <text fill="#404040" font-family="Dialog" font-size="12" x="362" y="292">Cout</text>
   <rect fill="#000000" height="20" stroke="none" stroke-linecap="square" stroke-width="1" width="200" x="193" y="318"/>
   <rect fill="none" height="80" stroke="#000000" stroke-linecap="square" stroke-width="2" width="200" x="193" y="258"/>
   <text fill="#FFFFFF" font-family="Dialog" font-size="14" font-weight="bold" x="255" y="332">Full_Adder</text>
   <circle cx="183" cy="268" fill="#000000" r="2" stroke="none" stroke-width="1"/>
   <circle cx="183" cy="288" fill="#000000" r="2" stroke="none" stroke-width="1"/>
   <circle cx="183" cy="308" fill="#000000" r="2" stroke="none" stroke-width="1"/>
   <circle cx="403" cy="268" fill="#000000" r="2" stroke="none" stroke-width="1"/>
   <circle cx="403" cy="288" fill="#000000" r="2" stroke="none" stroke-width="1"/>
   <rect fill="none" height="18" stroke="#000000" stroke-linecap="square" stroke-width="2" width="18" x="35" y="20"/>
   <text fill="#000000" font-family="sans-serif" font-size="12" x="37" y="35">x1</text>
   <text fill="#000000" font-family="sans-serif" font-size="16" font-weight="bold" x="5" y="36">Cin</text>
   <circle cx="53" cy="28" fill="#000000" r="2" stroke="none" stroke-width="2"/>
   <text fill="#000000" font-family="sans-serif" font-size="16" font-weight="bold" x="78" y="124">A2</text>
   <path d="M77,105 H101 V132 H77 V128 L73,118 L77,108 Z" fill="none" stroke="#000000" stroke-linecap="square" stroke-width="2"/>
   <circle cx="73" cy="118" fill="#000000" r="2" stroke="none" stroke-width="2"/>
   <circle cx="444" cy="29" fill="none" r="9" stroke="#000000" stroke-width="2"/>
   <text fill="#000000" font-family="sans-serif" font-size="12" x="437" y="35">x1</text>
   <text fill="#000000" font-family="sans-serif" font-size="16" font-weight="bold" x="455" y="36">S0</text>
   <circle cx="433" cy="28" fill="#000000" r="2" stroke="none" stroke-width="2"/>
   <text fill="#000000" font-family="sans-serif" font-size="16" font-weight="bold" x="137" y="324">B2</text>
   <path d="M134,305 H160 V308 L164,318 L160,328 V332 H134 Z" fill="none" stroke="#000000" stroke-linecap="square" stroke-width="2"/>
   <circle cx="163" cy="318" fill="#000000" r="2" stroke="none" stroke-width="2"/>
   <text fill="#000000" font-family="sans-serif" font-size="16" font-weight="bold" x="137" y="84">B0</text>
   <path d="M134,65 H160 V68 L164,78 L160,88 V92 H134 Z" fill="none" stroke="#000000" stroke-linecap="square" stroke-width="2"/>
   <circle cx="163" cy="78" fill="#000000" r="2" stroke="none" stroke-width="2"/>
   <rect fill="none" height="18" stroke="#000000" stroke-linecap="square" stroke-width="2" width="18" x="35" y="230"/>
   <text fill="#000000" font-family="sans-serif" font-size="12" x="37" y="245">x1</text>
   <text fill="#000000" font-family="sans-serif" font-size="16" font-weight="bold" x="10" y="246">B2</text>
   <circle cx="53" cy="238" fill="#000000" r="2" stroke="none" stroke-width="2"/>
   <circle cx="444" cy="409" fill="none" r="9" stroke="#000000" stroke-width="2"/>
   <text fill="#000000" font-family="sans-serif" font-size="12" x="437" y="415">x1</text>
   <text fill="#000000" font-family="sans-serif" font-size="16" font-weight="bold" x="455" y="416">Cout</text>
   <circle cx="433" cy="408" fill="#000000" r="2" stroke="none" stroke-width="2"/>
   <text fill="#000000" font-family="sans-serif" font-size="16" font-weight="bold" x="78" y="94">A1</text>
   <path d="M77,75 H101 V102 H77 V98 L73,88 L77,78 Z" fill="none" stroke="#000000" stroke-linecap="square" stroke-width="2"/>
   <circle cx="73" cy="88" fill="#000000" r="2" stroke="none" stroke-width="2"/>
   <rect fill="none" height="18" stroke="#000000" stroke-linecap="square" stroke-width="2" width="18" x="35" y="200"/>
   <text fill="#000000" font-family="sans-serif" font-size="12" x="37" y="215">x1</text>
   <text fill="#000000" font-family="sans-serif" font-size="16" font-weight="bold" x="10" y="216">B1</text>
   <circle cx="53" cy="208" fill="#000000" r="2" stroke="none" stroke-width="2"/>
   <rect fill="none" height="18" stroke="#000000" stroke-linecap="square" stroke-width="2" width="18" x="35" y="80"/>
   <text fill="#000000" font-family="sans-serif" font-size="12" x="37" y="95">x1</text>
   <text fill="#000000" font-family="sans-serif" font-size="16" font-weight="bold" x="11" y="96">A1</text>
   <circle cx="53" cy="88" fill="#000000" r="2" stroke="none" stroke-width="2"/>
   <rect fill="none" height="18" stroke="#000000" stroke-linecap="square" stroke-width="2" width="18" x="35" y="110"/>
   <text fill="#000000" font-family="sans-serif" font-size="12" x="37" y="125">x1</text>
   <text fill="#000000" font-family="sans-serif" font-size="16" font-weight="bold" x="11" y="126">A2</text>
   <circle cx="53" cy="118" fill="#000000" r="2" stroke="none" stroke-width="2"/>
   <text fill="#000000" font-family="sans-serif" font-size="16" font-weight="bold" x="78" y="154">A3</text>
   <path d="M77,135 H101 V162 H77 V158 L73,148 L77,138 Z" fill="none" stroke="#000000" stroke-linecap="square" stroke-width="2"/>
   <circle cx="73" cy="148" fill="#000000" r="2" stroke="none" stroke-width="2"/>
   <circle cx="444" cy="389" fill="none" r="9" stroke="#000000" stroke-width="2"/>
   <text fill="#000000" font-family="sans-serif" font-size="12" x="437" y="395">x1</text>
   <text fill="#000000" font-family="sans-serif" font-size="16" font-weight="bold" x="455" y="396">S3</text>
   <circle cx="433" cy="388" fill="#000000" r="2" stroke="none" stroke-width="2"/>
   <text fill="#000000" font-family="sans-serif" font-size="16" font-weight="bold" x="78" y="64">A0</text>
   <path d="M77,45 H101 V72 H77 V68 L73,58 L77,48 Z" fill="none" stroke="#000000" stroke-linecap="square" stroke-width="2"/>
   <circle cx="73" cy="58" fill="#000000" r="2" stroke="none" stroke-width="2"/>
   <text fill="#000000" font-family="sans-serif" font-size="16" font-weight="bold" x="137" y="444">B3</text>
   <path d="M134,425 H160 V428 L164,438 L160,448 V452 H134 Z" fill="none" stroke="#000000" stroke-linecap="square" stroke-width="2"/>
   <circle cx="163" cy="438" fill="#000000" r="2" stroke="none" stroke-width="2"/>
   <rect fill="#000000" height="3" stroke="none" stroke-linecap="square" stroke-width="1" width="10" x="183" y="27"/>
   <text fill="#404040" font-family="Dialog" font-size="12" x="198" y="32">Cin</text>
   <rect fill="#000000" height="3" stroke="none" stroke-linecap="square" stroke-width="1" width="10" x="183" y="47"/>
   <text fill="#404040" font-family="Dialog" font-size="12" x="198" y="52">A</text>
   <rect fill="#000000" height="3" stroke="none" stroke-linecap="square" stroke-width="1" width="10" x="183" y="67"/>
   <text fill="#404040" font-family="Dialog" font-size="12" x="198" y="72">B</text>
   <rect fill="#000000" height="3" stroke="none" stroke-linecap="square" stroke-width="1" width="10" x="393" y="27"/>
   <text fill="#404040" font-family="Dialog" font-size="12" x="380" y="32">S</text>
   <rect fill="#000000" height="3" stroke="none" stroke-linecap="square" stroke-width="1" width="10" x="393" y="47"/>
   <text fill="#404040" font-family="Dialog" font-size="12" x="362" y="52">Cout</text>
   <rect fill="#000000" height="20" stroke="none" stroke-linecap="square" stroke-width="1" width="200" x="193" y="78"/>
   <rect fill="none" height="80" stroke="#000000" stroke-linecap="square" stroke-width="2" width="200" x="193" y="18"/>
   <text fill="#FFFFFF" font-family="Dialog" font-size="14" font-weight="bold" x="255" y="92">Full_Adder</text>
   <circle cx="183" cy="28" fill="#000000" r="2" stroke="none" stroke-width="1"/>
   <circle cx="183" cy="48" fill="#000000" r="2" stroke="none" stroke-width="1"/>
   <circle cx="183" cy="68" fill="#000000" r="2" stroke="none" stroke-width="1"/>
   <circle cx="403" cy="28" fill="#000000" r="2" stroke="none" stroke-width="1"/>
   <circle cx="403" cy="48" fill="#000000" r="2" stroke="none" stroke-width="1"/>
   <circle cx="444" cy="269" fill="none" r="9" stroke="#000000" stroke-width="2"/>
   <text fill="#000000" font-family="sans-serif" font-size="12" x="437" y="275">x1</text>
   <text fill="#000000" font-family="sans-serif" font-size="16" font-weight="bold" x="455" y="276">S2</text>
   <circle cx="433" cy="268" fill="#000000" r="2" stroke="none" stroke-width="2"/>
   <rect fill="none" height="18" stroke="#000000" stroke-linecap="square" stroke-width="2" width="18" x="35" y="140"/>
   <text fill="#000000" font-family="sans-serif" font-size="12" x="37" y="155">x1</text>
   <text fill="#000000" font-family="sans-serif" font-size="16" font-weight="bold" x="11" y="156">A3</text>
   <circle cx="53" cy="148" fill="#000000" r="2" stroke="none" stroke-width="2"/>
   <text fill="#000000" font-family="sans-serif" font-size="16" font-weight="bold" x="138" y="414">A3</text>
   <path d="M135,395 H160 V398 L164,408 L160,418 V422 H135 Z" fill="none" stroke="#000000" stroke-linecap="square" stroke-width="2"/>
   <circle cx="163" cy="408" fill="#000000" r="2" stroke="none" stroke-width="2"/>
   <circle cx="444" cy="149" fill="none" r="9" stroke="#000000" stroke-width="2"/>
   <text fill="#000000" font-family="sans-serif" font-size="12" x="437" y="155">x1</text>
   <text fill="#000000" font-family="sans-serif" font-size="16" font-weight="bold" x="455" y="156">S1</text>
   <circle cx="433" cy="148" fill="#000000" r="2" stroke="none" stroke-width="2"/>
   <text fill="#000000" font-family="sans-serif" font-size="16" font-weight="bold" x="78" y="274">B3</text>
   <path d="M77,255 H102 V282 H77 V278 L73,268 L77,258 Z" fill="none" stroke="#000000" stroke-linecap="square" stroke-width="2"/>
   <circle cx="73" cy="268" fill="#000000" r="2" stroke="none" stroke-width="2"/>
   <text fill="#000000" font-family="sans-serif" font-size="16" font-weight="bold" x="132" y="24">Cin</text>
   <path d="M129,5 H160 V8 L164,18 L160,28 V32 H129 Z" fill="none" stroke="#000000" stroke-linecap="square" stroke-width="2"/>
   <circle cx="163" cy="18" fill="#000000" r="2" stroke="none" stroke-width="2"/>
   <rect fill="#000000" height="3" stroke="none" stroke-linecap="square" stroke-width="1" width="10" x="183" y="387"/>
   <text fill="#404040" font-family="Dialog" font-size="12" x="198" y="392">Cin</text>
   <rect fill="#000000" height="3" stroke="none" stroke-linecap="square" stroke-width="1" width="10" x="183" y="407"/>
   <text fill="#404040" font-family="Dialog" font-size="12" x="198" y="412">A</text>
   <rect fill="#000000" height="3" stroke="none" stroke-linecap="square" stroke-width="1" width="10" x="183" y="427"/>
   <text fill="#404040" font-family="Dialog" font-size="12" x="198" y="432">B</text>
   <rect fill="#000000" height="3" stroke="none" stroke-linecap="square" stroke-width="1" width="10" x="393" y="387"/>
   <text fill="#404040" font-family="Dialog" font-size="12" x="380" y="392">S</text>
   <rect fill="#000000" height="3" stroke="none" stroke-linecap="square" stroke-width="1" width="10" x="393" y="407"/>
   <text fill="#404040" font-family="Dialog" font-size="12" x="362" y="412">Cout</text>
   <rect fill="#000000" height="20" stroke="none" stroke-linecap="square" stroke-width="1" width="200" x="193" y="438"/>
   <rect fill="none" height="80" stroke="#000000" stroke-linecap="square" stroke-width="2" width="200" x="193" y="378"/>
   <text fill="#FFFFFF" font-family="Dialog" font-size="14" font-weight="bold" x="255" y="452">Full_Adder</text>
   <circle cx="183" cy="388" fill="#000000" r="2" stroke="none" stroke-width="1"/>
   <circle cx="183" cy="408" fill="#000000" r="2" stroke="none" stroke-width="1"/>
   <circle cx="183" cy="428" fill="#000000" r="2" stroke="none" stroke-width="1"/>
   <circle cx="403" cy="388" fill="#000000" r="2" stroke="none" stroke-width="1"/>
   <circle cx="403" cy="408" fill="#000000" r="2" stroke="none" stroke-width="1"/>
   <text fill="#000000" font-family="sans-serif" font-size="16" font-weight="bold" x="137" y="204">B1</text>
   <path d="M134,185 H160 V188 L164,198 L160,208 V212 H134 Z" fill="none" stroke="#000000" stroke-linecap="square" stroke-width="2"/>
   <circle cx="163" cy="198" fill="#000000" r="2" stroke="none" stroke-width="2"/>
   <text fill="#000000" font-family="sans-serif" font-size="16" font-weight="bold" x="138" y="294">A2</text>
   <path d="M135,275 H160 V278 L164,288 L160,298 V302 H135 Z" fill="none" stroke="#000000" stroke-linecap="square" stroke-width="2"/>
   <circle cx="163" cy="288" fill="#000000" r="2" stroke="none" stroke-width="2"/>
   <text fill="#000000" font-family="sans-serif" font-size="16" font-weight="bold" x="138" y="54">A0</text>
   <path d="M135,35 H160 V38 L164,48 L160,58 V62 H135 Z" fill="none" stroke="#000000" stroke-linecap="square" stroke-width="2"/>
   <circle cx="163" cy="48" fill="#000000" r="2" stroke="none" stroke-width="2"/>
   <rect fill="none" height="18" stroke="#000000" stroke-linecap="square" stroke-width="2" width="18" x="35" y="50"/>
   <text fill="#000000" font-family="sans-serif" font-size="12" x="37" y="65">x1</text>
   <text fill="#000000" font-family="sans-serif" font-size="16" font-weight="bold" x="11" y="66">A0</text>
   <circle cx="53" cy="58" fill="#000000" r="2" stroke="none" stroke-width="2"/>
   <text fill="#000000" font-family="sans-serif" font-size="16" font-weight="bold" x="138" y="174">A1</text>
   <path d="M135,155 H160 V158 L164,168 L160,178 V182 H135 Z" fill="none" stroke="#000000" stroke-linecap="square" stroke-width="2"/>
   <circle cx="163" cy="168" fill="#000000" r="2" stroke="none" stroke-width="2"/>
   <text fill="#000000" font-family="sans-serif" font-size="16" font-weight="bold" x="78" y="184">B0</text>
   <path d="M77,165 H102 V192 H77 V188 L73,178 L77,168 Z" fill="none" stroke="#000000" stroke-linecap="square" stroke-width="2"/>
   <circle cx="73" cy="178" fill="#000000" r="2" stroke="none" stroke-width="2"/>
   <text fill="#000000" font-family="sans-serif" font-size="16" font-weight="bold" x="78" y="244">B2</text>
   <path d="M77,225 H102 V252 H77 V248 L73,238 L77,228 Z" fill="none" stroke="#000000" stroke-linecap="square" stroke-width="2"/>
   <circle cx="73" cy="238" fill="#000000" r="2" stroke="none" stroke-width="2"/>
</svg>
