<?xml version="1.0" encoding="UTF-8" standalone="no"?>
<svg xmlns="http://www.w3.org/2000/svg" height="277" version="1.1" viewBox="0 0 847 277" width="847">
   <path d="M403,18 H433" fill="none" stroke="#000000" stroke-linecap="square" stroke-width="3"/>
   <path d="M513,18 H533" fill="none" stroke="#000000" stroke-linecap="square" stroke-width="3"/>
   <path d="M753,128 H783" fill="none" stroke="#000000" stroke-linecap="square" stroke-width="3"/>
   <path d="M753,148 H783" fill="none" stroke="#000000" stroke-linecap="square" stroke-width="3"/>
   <path d="M53,78 H73" fill="none" stroke="#000000" stroke-linecap="square" stroke-width="3"/>
   <path d="M53,138 H73" fill="none" stroke="#000000" stroke-linecap="square" stroke-width="3"/>
   <path d="M53,198 H73" fill="none" stroke="#000000" stroke-linecap="square" stroke-width="3"/>
   <path d="M53,258 H73" fill="none" stroke="#000000" stroke-linecap="square" stroke-width="3"/>
   <path d="M53,18 H73" fill="none" stroke="#000000" stroke-linecap="square" stroke-width="3"/>
   <path d="M163,128 H183" fill="none" stroke="#000000" stroke-linecap="square" stroke-width="3"/>
   <path d="M163,158 H173 V148 H183" fill="none" stroke="#000000" stroke-linecap="square" stroke-width="3"/>
   <path d="M513,48 H523 V38 H533" fill="none" stroke="#000000" stroke-linecap="square" stroke-width="3"/>
   <path d="M403,128 H433" fill="none" stroke="#000000" stroke-linecap="square" stroke-width="3"/>
   <path d="M513,128 H533" fill="none" stroke="#000000" stroke-linecap="square" stroke-width="3"/>
   <path d="M753,18 H783" fill="none" stroke="#000000" stroke-linecap="square" stroke-width="3"/>
   <path d="M53,108 H73" fill="none" stroke="#000000" stroke-linecap="square" stroke-width="3"/>
   <path d="M53,168 H73" fill="none" stroke="#000000" stroke-linecap="square" stroke-width="3"/>
   <path d="M53,228 H73" fill="none" stroke="#000000" stroke-linecap="square" stroke-width="3"/>
   <path d="M53,48 H73" fill="none" stroke="#000000" stroke-linecap="square" stroke-width="3"/>
   <path d="M163,18 H183" fill="none" stroke="#000000" stroke-linecap="square" stroke-width="3"/>
   <path d="M403,38 H413 V78 H523 V58 H533" fill="none" stroke="#000000" stroke-linecap="square" stroke-width="3"/>
   <path d="M163,78 H173 V58 H183" fill="none" stroke="#000000" stroke-linecap="square" stroke-width="3"/>
   <path d="M163,48 H173 V38 H183" fill="none" stroke="#000000" stroke-linecap="square" stroke-width="3"/>
   <path d="M753,38 H763 V108 H123 V228 H173 V168 H183" fill="none" stroke="#000000" stroke-linecap="square" stroke-width="3"/>
   <path d="M403,148 H413 V188 H523 V168 H533" fill="none" stroke="#000000" stroke-linecap="square" stroke-width="3"/>
   <path d="M513,158 H523 V148 H533" fill="none" stroke="#000000" stroke-linecap="square" stroke-width="3"/>
   <rect fill="none" height="18" stroke="#000000" stroke-linecap="square" stroke-width="2" width="18" x="35" y="70"/>
   <text fill="#000000" font-family="sans-serif" font-size="12" x="37" y="85">x1</text>
   <text fill="#000000" font-family="sans-serif" font-size="16" font-weight="bold" x="12" y="86">X1</text>
   <circle cx="53" cy="78" fill="#000000" r="2" stroke="none" stroke-width="2"/>
   <rect fill="none" height="18" stroke="#000000" stroke-linecap="square" stroke-width="2" width="18" x="35" y="100"/>
   <text fill="#000000" font-family="sans-serif" font-size="12" x="37" y="115">x1</text>
   <text fill="#000000" font-family="sans-serif" font-size="16" font-weight="bold" x="12" y="116">X2</text>
   <circle cx="53" cy="108" fill="#000000" r="2" stroke="none" stroke-width="2"/>
   <rect fill="none" height="18" stroke="#000000" stroke-linecap="square" stroke-width="2" width="18" x="35" y="130"/>
   <text fill="#000000" font-family="sans-serif" font-size="12" x="37" y="145">x1</text>
   <text fill="#000000" font-family="sans-serif" font-size="16" font-weight="bold" x="12" y="146">X3</text>
   <circle cx="53" cy="138" fill="#000000" r="2" stroke="none" stroke-width="2"/>
   <rect fill="none" height="18" stroke="#000000" stroke-linecap="square" stroke-width="2" width="18" x="35" y="160"/>
   <text fill="#000000" font-family="sans-serif" font-size="12" x="37" y="175">x1</text>
   <text fill="#000000" font-family="sans-serif" font-size="16" font-weight="bold" x="12" y="176">Y0</text>
   <circle cx="53" cy="168" fill="#000000" r="2" stroke="none" stroke-width="2"/>
   <rect fill="none" height="18" stroke="#000000" stroke-linecap="square" stroke-width="2" width="18" x="35" y="190"/>
   <text fill="#000000" font-family="sans-serif" font-size="12" x="37" y="205">x1</text>
   <text fill="#000000" font-family="sans-serif" font-size="16" font-weight="bold" x="12" y="206">Y1</text>
   <circle cx="53" cy="198" fill="#000000" r="2" stroke="none" stroke-width="2"/>
   <rect fill="none" height="18" stroke="#000000" stroke-linecap="square" stroke-width="2" width="18" x="35" y="220"/>
   <text fill="#000000" font-family="sans-serif" font-size="12" x="37" y="235">x1</text>
   <text fill="#000000" font-family="sans-serif" font-size="16" font-weight="bold" x="12" y="236">Y2</text>
   <circle cx="53" cy="228" fill="#000000" r="2" stroke="none" stroke-width="2"/>
   <rect fill="none" height="18" stroke="#000000" stroke-linecap="square" stroke-width="2" width="18" x="35" y="250"/>
   <text fill="#000000" font-family="sans-serif" font-size="12" x="37" y="265">x1</text>
   <text fill="#000000" font-family="sans-serif" font-size="16" font-weight="bold" x="12" y="266">Y3</text>
   <circle cx="53" cy="258" fill="#000000" r="2" stroke="none" stroke-width="2"/>
   <rect fill="none" height="18" stroke="#000000" stroke-linecap="square" stroke-width="2" width="18" x="35" y="10"/>
   <text fill="#000000" font-family="sans-serif" font-size="12" x="37" y="25">x1</text>
   <text fill="#000000" font-family="sans-serif" font-size="16" font-weight="bold" x="5" y="26">Bin</text>
   <circle cx="53" cy="18" fill="#000000" r="2" stroke="none" stroke-width="2"/>
   <rect fill="none" height="18" stroke="#000000" stroke-linecap="square" stroke-width="2" width="18" x="35" y="40"/>
   <text fill="#000000" font-family="sans-serif" font-size="12" x="37" y="55">x1</text>
   <text fill="#000000" font-family="sans-serif" font-size="16" font-weight="bold" x="12" y="56">X0</text>
   <circle cx="53" cy="48" fill="#000000" r="2" stroke="none" stroke-width="2"/>
   <text fill="#000000" font-family="sans-serif" font-size="16" font-weight="bold" x="78" y="84">X1</text>
   <path d="M77,65 H100 V92 H77 V88 L73,78 L77,68 Z" fill="none" stroke="#000000" stroke-linecap="square" stroke-width="2"/>
   <circle cx="73" cy="78" fill="#000000" r="2" stroke="none" stroke-width="2"/>
   <text fill="#000000" font-family="sans-serif" font-size="16" font-weight="bold" x="78" y="114">X2</text>
   <path d="M77,95 H100 V122 H77 V118 L73,108 L77,98 Z" fill="none" stroke="#000000" stroke-linecap="square" stroke-width="2"/>
   <circle cx="73" cy="108" fill="#000000" r="2" stroke="none" stroke-width="2"/>
   <text fill="#000000" font-family="sans-serif" font-size="16" font-weight="bold" x="78" y="144">X3</text>
   <path d="M77,125 H100 V152 H77 V148 L73,138 L77,128 Z" fill="none" stroke="#000000" stroke-linecap="square" stroke-width="2"/>
   <circle cx="73" cy="138" fill="#000000" r="2" stroke="none" stroke-width="2"/>
   <text fill="#000000" font-family="sans-serif" font-size="16" font-weight="bold" x="78" y="174">Y0</text>
   <path d="M77,155 H100 V182 H77 V178 L73,168 L77,158 Z" fill="none" stroke="#000000" stroke-linecap="square" stroke-width="2"/>
   <circle cx="73" cy="168" fill="#000000" r="2" stroke="none" stroke-width="2"/>
   <text fill="#000000" font-family="sans-serif" font-size="16" font-weight="bold" x="78" y="204">Y1</text>
   <path d="M77,185 H100 V212 H77 V208 L73,198 L77,188 Z" fill="none" stroke="#000000" stroke-linecap="square" stroke-width="2"/>
   <circle cx="73" cy="198" fill="#000000" r="2" stroke="none" stroke-width="2"/>
   <text fill="#000000" font-family="sans-serif" font-size="16" font-weight="bold" x="78" y="234">Y2</text>
   <path d="M77,215 H100 V242 H77 V238 L73,228 L77,218 Z" fill="none" stroke="#000000" stroke-linecap="square" stroke-width="2"/>
   <circle cx="73" cy="228" fill="#000000" r="2" stroke="none" stroke-width="2"/>
   <text fill="#000000" font-family="sans-serif" font-size="16" font-weight="bold" x="78" y="264">Y3</text>
   <path d="M77,245 H100 V272 H77 V268 L73,258 L77,248 Z" fill="none" stroke="#000000" stroke-linecap="square" stroke-width="2"/>
   <circle cx="73" cy="258" fill="#000000" r="2" stroke="none" stroke-width="2"/>
   <text fill="#000000" font-family="sans-serif" font-size="16" font-weight="bold" x="78" y="24">Bin</text>
   <path d="M77,5 H107 V32 H77 V28 L73,18 L77,8 Z" fill="none" stroke="#000000" stroke-linecap="square" stroke-width="2"/>
   <circle cx="73" cy="18" fill="#000000" r="2" stroke="none" stroke-width="2"/>
   <text fill="#000000" font-family="sans-serif" font-size="16" font-weight="bold" x="78" y="54">X0</text>
   <path d="M77,35 H100 V62 H77 V58 L73,48 L77,38 Z" fill="none" stroke="#000000" stroke-linecap="square" stroke-width="2"/>
   <circle cx="73" cy="48" fill="#000000" r="2" stroke="none" stroke-width="2"/>
   <rect fill="#000000" height="3" stroke="none" stroke-linecap="square" stroke-width="1" width="10" x="183" y="17"/>
   <text fill="#404040" font-family="Dialog" font-size="12" x="198" y="22">X</text>
   <rect fill="#000000" height="3" stroke="none" stroke-linecap="square" stroke-width="1" width="10" x="183" y="37"/>
   <text fill="#404040" font-family="Dialog" font-size="12" x="198" y="42">Y</text>
   <rect fill="#000000" height="3" stroke="none" stroke-linecap="square" stroke-width="1" width="10" x="183" y="57"/>
   <text fill="#404040" font-family="Dialog" font-size="12" x="198" y="62">Bin</text>
   <rect fill="#000000" height="3" stroke="none" stroke-linecap="square" stroke-width="1" width="10" x="393" y="17"/>
   <text fill="#404040" font-family="Dialog" font-size="12" x="380" y="22">D</text>
   <rect fill="#000000" height="3" stroke="none" stroke-linecap="square" stroke-width="1" width="10" x="393" y="37"/>
   <text fill="#404040" font-family="Dialog" font-size="12" x="364" y="42">Bout</text>
   <rect fill="#000000" height="20" stroke="none" stroke-linecap="square" stroke-width="1" width="200" x="193" y="68"/>
   <rect fill="none" height="80" stroke="#000000" stroke-linecap="square" stroke-width="2" width="200" x="193" y="8"/>
   <text fill="#FFFFFF" font-family="Dialog" font-size="14" font-weight="bold" x="241" y="82">Full_Subtractor</text>
   <circle cx="183" cy="18" fill="#000000" r="2" stroke="none" stroke-width="1"/>
   <circle cx="183" cy="38" fill="#000000" r="2" stroke="none" stroke-width="1"/>
   <circle cx="183" cy="58" fill="#000000" r="2" stroke="none" stroke-width="1"/>
   <circle cx="403" cy="18" fill="#000000" r="2" stroke="none" stroke-width="1"/>
   <circle cx="403" cy="38" fill="#000000" r="2" stroke="none" stroke-width="1"/>
   <text fill="#000000" font-family="sans-serif" font-size="16" font-weight="bold" x="139" y="24">X0</text>
   <path d="M136,5 H160 V8 L164,18 L160,28 V32 H136 Z" fill="none" stroke="#000000" stroke-linecap="square" stroke-width="2"/>
   <circle cx="163" cy="18" fill="#000000" r="2" stroke="none" stroke-width="2"/>
   <text fill="#000000" font-family="sans-serif" font-size="16" font-weight="bold" x="139" y="54">Y0</text>
   <path d="M136,35 H160 V38 L164,48 L160,58 V62 H136 Z" fill="none" stroke="#000000" stroke-linecap="square" stroke-width="2"/>
   <circle cx="163" cy="48" fill="#000000" r="2" stroke="none" stroke-width="2"/>
   <text fill="#000000" font-family="sans-serif" font-size="16" font-weight="bold" x="132" y="84">Bin</text>
   <path d="M129,65 H160 V68 L164,78 L160,88 V92 H129 Z" fill="none" stroke="#000000" stroke-linecap="square" stroke-width="2"/>
   <circle cx="163" cy="78" fill="#000000" r="2" stroke="none" stroke-width="2"/>
   <circle cx="444" cy="19" fill="none" r="9" stroke="#000000" stroke-width="2"/>
   <text fill="#000000" font-family="sans-serif" font-size="12" x="437" y="25">x1</text>
   <text fill="#000000" font-family="sans-serif" font-size="16" font-weight="bold" x="455" y="26">D0</text>
   <circle cx="433" cy="18" fill="#000000" r="2" stroke="none" stroke-width="2"/>
   <circle cx="794" cy="19" fill="none" r="9" stroke="#000000" stroke-width="2"/>
   <text fill="#000000" font-family="sans-serif" font-size="12" x="787" y="25">x1</text>
   <text fill="#000000" font-family="sans-serif" font-size="16" font-weight="bold" x="805" y="26">D1</text>
   <circle cx="783" cy="18" fill="#000000" r="2" stroke="none" stroke-width="2"/>
   <text fill="#000000" font-family="sans-serif" font-size="16" font-weight="bold" x="489" y="54">Y1</text>
   <path d="M486,35 H510 V38 L514,48 L510,58 V62 H486 Z" fill="none" stroke="#000000" stroke-linecap="square" stroke-width="2"/>
   <circle cx="513" cy="48" fill="#000000" r="2" stroke="none" stroke-width="2"/>
   <text fill="#000000" font-family="sans-serif" font-size="16" font-weight="bold" x="489" y="24">X1</text>
   <path d="M486,5 H510 V8 L514,18 L510,28 V32 H486 Z" fill="none" stroke="#000000" stroke-linecap="square" stroke-width="2"/>
   <circle cx="513" cy="18" fill="#000000" r="2" stroke="none" stroke-width="2"/>
   <rect fill="#000000" height="3" stroke="none" stroke-linecap="square" stroke-width="1" width="10" x="533" y="17"/>
   <text fill="#404040" font-family="Dialog" font-size="12" x="548" y="22">X</text>
   <rect fill="#000000" height="3" stroke="none" stroke-linecap="square" stroke-width="1" width="10" x="533" y="37"/>
   <text fill="#404040" font-family="Dialog" font-size="12" x="548" y="42">Y</text>
   <rect fill="#000000" height="3" stroke="none" stroke-linecap="square" stroke-width="1" width="10" x="533" y="57"/>
   <text fill="#404040" font-family="Dialog" font-size="12" x="548" y="62">Bin</text>
   <rect fill="#000000" height="3" stroke="none" stroke-linecap="square" stroke-width="1" width="10" x="743" y="17"/>
   <text fill="#404040" font-family="Dialog" font-size="12" x="730" y="22">D</text>
   <rect fill="#000000" height="3" stroke="none" stroke-linecap="square" stroke-width="1" width="10" x="743" y="37"/>
   <text fill="#404040" font-family="Dialog" font-size="12" x="714" y="42">Bout</text>
   <rect fill="#000000" height="20" stroke="none" stroke-linecap="square" stroke-width="1" width="200" x="543" y="68"/>
   <rect fill="none" height="80" stroke="#000000" stroke-linecap="square" stroke-width="2" width="200" x="543" y="8"/>
   <text fill="#FFFFFF" font-family="Dialog" font-size="14" font-weight="bold" x="591" y="82">Full_Subtractor</text>
   <circle cx="533" cy="18" fill="#000000" r="2" stroke="none" stroke-width="1"/>
   <circle cx="533" cy="38" fill="#000000" r="2" stroke="none" stroke-width="1"/>
   <circle cx="533" cy="58" fill="#000000" r="2" stroke="none" stroke-width="1"/>
   <circle cx="753" cy="18" fill="#000000" r="2" stroke="none" stroke-width="1"/>
   <circle cx="753" cy="38" fill="#000000" r="2" stroke="none" stroke-width="1"/>
   <rect fill="#000000" height="3" stroke="none" stroke-linecap="square" stroke-width="1" width="10" x="183" y="127"/>
   <text fill="#404040" font-family="Dialog" font-size="12" x="198" y="132">X</text>
   <rect fill="#000000" height="3" stroke="none" stroke-linecap="square" stroke-width="1" width="10" x="183" y="147"/>
   <text fill="#404040" font-family="Dialog" font-size="12" x="198" y="152">Y</text>
   <rect fill="#000000" height="3" stroke="none" stroke-linecap="square" stroke-width="1" width="10" x="183" y="167"/>
   <text fill="#404040" font-family="Dialog" font-size="12" x="198" y="172">Bin</text>
   <rect fill="#000000" height="3" stroke="none" stroke-linecap="square" stroke-width="1" width="10" x="393" y="127"/>
   <text fill="#404040" font-family="Dialog" font-size="12" x="380" y="132">D</text>
   <rect fill="#000000" height="3" stroke="none" stroke-linecap="square" stroke-width="1" width="10" x="393" y="147"/>
   <text fill="#404040" font-family="Dialog" font-size="12" x="364" y="152">Bout</text>
   <rect fill="#000000" height="20" stroke="none" stroke-linecap="square" stroke-width="1" width="200" x="193" y="178"/>
   <rect fill="none" height="80" stroke="#000000" stroke-linecap="square" stroke-width="2" width="200" x="193" y="118"/>
   <text fill="#FFFFFF" font-family="Dialog" font-size="14" font-weight="bold" x="241" y="192">Full_Subtractor</text>
   <circle cx="183" cy="128" fill="#000000" r="2" stroke="none" stroke-width="1"/>
   <circle cx="183" cy="148" fill="#000000" r="2" stroke="none" stroke-width="1"/>
   <circle cx="183" cy="168" fill="#000000" r="2" stroke="none" stroke-width="1"/>
   <circle cx="403" cy="128" fill="#000000" r="2" stroke="none" stroke-width="1"/>
   <circle cx="403" cy="148" fill="#000000" r="2" stroke="none" stroke-width="1"/>
   <text fill="#000000" font-family="sans-serif" font-size="16" font-weight="bold" x="139" y="134">X2</text>
   <path d="M136,115 H160 V118 L164,128 L160,138 V142 H136 Z" fill="none" stroke="#000000" stroke-linecap="square" stroke-width="2"/>
   <circle cx="163" cy="128" fill="#000000" r="2" stroke="none" stroke-width="2"/>
   <circle cx="444" cy="129" fill="none" r="9" stroke="#000000" stroke-width="2"/>
   <text fill="#000000" font-family="sans-serif" font-size="12" x="437" y="135">x1</text>
   <text fill="#000000" font-family="sans-serif" font-size="16" font-weight="bold" x="455" y="136">D2</text>
   <circle cx="433" cy="128" fill="#000000" r="2" stroke="none" stroke-width="2"/>
   <text fill="#000000" font-family="sans-serif" font-size="16" font-weight="bold" x="139" y="164">Y2</text>
   <path d="M136,145 H160 V148 L164,158 L160,168 V172 H136 Z" fill="none" stroke="#000000" stroke-linecap="square" stroke-width="2"/>
   <circle cx="163" cy="158" fill="#000000" r="2" stroke="none" stroke-width="2"/>
   <text fill="#000000" font-family="sans-serif" font-size="16" font-weight="bold" x="489" y="164">Y3</text>
   <path d="M486,145 H510 V148 L514,158 L510,168 V172 H486 Z" fill="none" stroke="#000000" stroke-linecap="square" stroke-width="2"/>
   <circle cx="513" cy="158" fill="#000000" r="2" stroke="none" stroke-width="2"/>
   <text fill="#000000" font-family="sans-serif" font-size="16" font-weight="bold" x="489" y="134">X3</text>
   <path d="M486,115 H510 V118 L514,128 L510,138 V142 H486 Z" fill="none" stroke="#000000" stroke-linecap="square" stroke-width="2"/>
   <circle cx="513" cy="128" fill="#000000" r="2" stroke="none" stroke-width="2"/>
   <circle cx="794" cy="149" fill="none" r="9" stroke="#000000" stroke-width="2"/>
   <text fill="#000000" font-family="sans-serif" font-size="12" x="787" y="155">x1</text>
   <text fill="#000000" font-family="sans-serif" font-size="16" font-weight="bold" x="805" y="156">Bout</text>
   <circle cx="783" cy="148" fill="#000000" r="2" stroke="none" stroke-width="2"/>
   <circle cx="794" cy="129" fill="none" r="9" stroke="#000000" stroke-width="2"/>
   <text fill="#000000" font-family="sans-serif" font-size="12" x="787" y="135">x1</text>
   <text fill="#000000" font-family="sans-serif" font-size="16" font-weight="bold" x="805" y="136">D3</text>
   <circle cx="783" cy="128" fill="#000000" r="2" stroke="none" stroke-width="2"/>
   <rect fill="#000000" height="3" stroke="none" stroke-linecap="square" stroke-width="1" width="10" x="533" y="127"/>
   <text fill="#404040" font-family="Dialog" font-size="12" x="548" y="132">X</text>
   <rect fill="#000000" height="3" stroke="none" stroke-linecap="square" stroke-width="1" width="10" x="533" y="147"/>
   <text fill="#404040" font-family="Dialog" font-size="12" x="548" y="152">Y</text>
   <rect fill="#000000" height="3" stroke="none" stroke-linecap="square" stroke-width="1" width="10" x="533" y="167"/>
   <text fill="#404040" font-family="Dialog" font-size="12" x="548" y="172">Bin</text>
   <rect fill="#000000" height="3" stroke="none" stroke-linecap="square" stroke-width="1" width="10" x="743" y="127"/>
   <text fill="#404040" font-family="Dialog" font-size="12" x="730" y="132">D</text>
   <rect fill="#000000" height="3" stroke="none" stroke-linecap="square" stroke-width="1" width="10" x="743" y="147"/>
   <text fill="#404040" font-family="Dialog" font-size="12" x="714" y="152">Bout</text>
   <rect fill="#000000" height="20" stroke="none" stroke-linecap="square" stroke-width="1" width="200" x="543" y="178"/>
   <rect fill="none" height="80" stroke="#000000" stroke-linecap="square" stroke-width="2" width="200" x="543" y="118"/>
   <text fill="#FFFFFF" font-family="Dialog" font-size="14" font-weight="bold" x="591" y="192">Full_Subtractor</text>
   <circle cx="533" cy="128" fill="#000000" r="2" stroke="none" stroke-width="1"/>
   <circle cx="533" cy="148" fill="#000000" r="2" stroke="none" stroke-width="1"/>
   <circle cx="533" cy="168" fill="#000000" r="2" stroke="none" stroke-width="1"/>
   <circle cx="753" cy="128" fill="#000000" r="2" stroke="none" stroke-width="1"/>
   <circle cx="753" cy="148" fill="#000000" r="2" stroke="none" stroke-width="1"/>
</svg>
