<?xml version="1.0" encoding="UTF-8" standalone="no"?>
<svg xmlns="http://www.w3.org/2000/svg" height="135" version="1.1" viewBox="0 0 302 135" width="302">
   <path d="M208,35 H238" fill="none" stroke="#000000" stroke-linecap="square" stroke-width="3"/>
   <path d="M38,55 H58" fill="none" stroke="#000000" stroke-linecap="square" stroke-width="3"/>
   <path d="M108,35 H128 V85 H148" fill="none" stroke="#000000" stroke-linecap="square" stroke-width="3"/>
   <path d="M58,15 V35 H78" fill="none" stroke="#000000" stroke-linecap="square" stroke-width="3"/>
   <path d="M198,105 H238" fill="none" stroke="#000000" stroke-linecap="square" stroke-width="3"/>
   <circle cx="58" cy="55" fill="#000000" r="5" stroke="none" stroke-width="3"/>
   <circle cx="58" cy="15" fill="#000000" r="5" stroke="none" stroke-width="3"/>
   <circle cx="249" cy="106" fill="none" r="9" stroke="#000000" stroke-width="2"/>
   <text fill="#000000" font-family="sans-serif" font-size="12" x="242" y="112">x1</text>
   <text fill="#000000" font-family="sans-serif" font-size="16" font-weight="bold" x="260" y="113">Bout</text>
   <circle cx="238" cy="105" fill="#000000" r="2" stroke="none" stroke-width="2"/>
   <circle cx="249" cy="36" fill="none" r="9" stroke="#000000" stroke-width="2"/>
   <text fill="#000000" font-family="sans-serif" font-size="12" x="242" y="42">x1</text>
   <text fill="#000000" font-family="sans-serif" font-size="16" font-weight="bold" x="260" y="43">D</text>
   <circle cx="238" cy="35" fill="#000000" r="2" stroke="none" stroke-width="2"/>
   <rect fill="none" height="18" stroke="#000000" stroke-linecap="square" stroke-width="2" width="18" x="20" y="7"/>
   <text fill="#000000" font-family="sans-serif" font-size="12" x="22" y="22">x1</text>
   <text fill="#000000" font-family="sans-serif" font-size="16" font-weight="bold" x="5" y="23">X</text>
   <circle cx="38" cy="15" fill="#000000" r="2" stroke="none" stroke-width="2"/>
   <rect fill="none" height="18" stroke="#000000" stroke-linecap="square" stroke-width="2" width="18" x="20" y="47"/>
   <text fill="#000000" font-family="sans-serif" font-size="12" x="22" y="62">x1</text>
   <text fill="#000000" font-family="sans-serif" font-size="16" font-weight="bold" x="6" y="63">Y</text>
   <circle cx="38" cy="55" fill="#000000" r="2" stroke="none" stroke-width="2"/>
   <path d="M98,35 L79,28 V42 L98,35" fill="none" stroke="#000000" stroke-linecap="square" stroke-width="2"/>
   <circle cx="103" cy="35" fill="none" r="4.5" stroke="#000000" stroke-width="2"/>
   <circle cx="108" cy="35" fill="#000000" r="2" stroke="none" stroke-width="2"/>
   <circle cx="78" cy="35" fill="#000000" r="2" stroke="none" stroke-width="2"/>
   <path d="M173,130 A25,25 90 0,0 173,80" fill="none" stroke="#000000" stroke-width="2"/>
   <path d="M173,80 H149 V130 H173" fill="none" stroke="#000000" stroke-linecap="square" stroke-width="2"/>
   <path d="M38,15 H148" fill="none" stroke="#000000" stroke-linecap="square" stroke-width="3"/>
   <path d="M148,55 H58 V125 H148" fill="none" stroke="#000000" stroke-linecap="square" stroke-width="3"/>
   <path d="M208,35 Q188,10 158,10 Q171,35 158,60 Q188,60 208,35 Z" fill="none" stroke="#000000" stroke-linecap="square" stroke-width="2"/>
   <path d="M148,10 Q161,35 148,60" fill="none" stroke="#000000" stroke-linecap="square" stroke-width="2"/>
</svg>
