<?xml version="1.0" encoding="UTF-8" standalone="no"?>
<svg xmlns="http://www.w3.org/2000/svg" height="1037" version="1.1" viewBox="0 0 588 1037" width="588">
   <path d="M208,518 H198 V528 H188" fill="none" stroke="#000000" stroke-linecap="square" stroke-width="4"/>
   <path d="M84,58 H98 V68 H148" fill="none" stroke="#000000" stroke-linecap="square" stroke-width="3"/>
   <path d="M308,528 H298 V608 H238" fill="none" stroke="#000000" stroke-linecap="square" stroke-width="4"/>
   <path d="M308,694 V778 H208" fill="none" stroke="#000000" stroke-linecap="square" stroke-width="3"/>
   <path d="M508,988 V1018 H478" fill="none" stroke="#000000" stroke-linecap="square" stroke-width="4"/>
   <path d="M238,834 V868 H218" fill="none" stroke="#000000" stroke-linecap="square" stroke-width="3"/>
   <path d="M78,558 H88 V648 H218 V624" fill="none" stroke="#000000" stroke-linecap="square" stroke-width="3"/>
   <path d="M268,398 H308" fill="none" stroke="#000000" stroke-linecap="square" stroke-width="3"/>
   <path d="M148,988 V1018 H108" fill="none" stroke="#000000" stroke-linecap="square" stroke-width="4"/>
   <path d="M238,714 V748 H208" fill="none" stroke="#000000" stroke-linecap="square" stroke-width="3"/>
   <path d="M414,58 H462" fill="none" stroke="#000000" stroke-linecap="square" stroke-width="3"/>
   <path d="M84,128 H132" fill="none" stroke="#000000" stroke-linecap="square" stroke-width="3"/>
   <path d="M84,48 H132" fill="none" stroke="#000000" stroke-linecap="square" stroke-width="3"/>
   <path d="M58,168 H78" fill="none" stroke="#000000" stroke-linecap="square" stroke-width="4"/>
   <path d="M462,78 H438 V118 H388" fill="none" stroke="#000000" stroke-linecap="square" stroke-width="3"/>
   <path d="M138,18 H148" fill="none" stroke="#000000" stroke-linecap="square" stroke-width="4"/>
   <path d="M188,588 H198 V598 H208" fill="none" stroke="#000000" stroke-linecap="square" stroke-width="4"/>
   <path d="M188,628 H198 V618 H208" fill="none" stroke="#000000" stroke-linecap="square" stroke-width="4"/>
   <path d="M188,308 H198 V318 H208" fill="none" stroke="#000000" stroke-linecap="square" stroke-width="4"/>
   <path d="M188,348 H198 V338 H208" fill="none" stroke="#000000" stroke-linecap="square" stroke-width="4"/>
   <path d="M208,688 H218 V668 H298" fill="none" stroke="#000000" stroke-linecap="square" stroke-width="3"/>
   <path d="M238,508 H308" fill="none" stroke="#000000" stroke-linecap="square" stroke-width="4"/>
   <path d="M528,488 H538" fill="none" stroke="#000000" stroke-linecap="square" stroke-width="4"/>
   <path d="M528,418 V428 H538" fill="none" stroke="#000000" stroke-linecap="square" stroke-width="3"/>
   <path d="M158,558 H218 V524" fill="none" stroke="#000000" stroke-linecap="square" stroke-width="3"/>
   <path d="M188,488 H198 V498 H208" fill="none" stroke="#000000" stroke-linecap="square" stroke-width="4"/>
   <path d="M228,708 H218 V718 H208" fill="none" stroke="#000000" stroke-linecap="square" stroke-width="3"/>
   <path d="M228,828 H218 V838 H208" fill="none" stroke="#000000" stroke-linecap="square" stroke-width="4"/>
   <path d="M188,418 H308" fill="none" stroke="#000000" stroke-linecap="square" stroke-width="4"/>
   <path d="M188,458 H308 V438" fill="none" stroke="#000000" stroke-linecap="square" stroke-width="4"/>
   <path d="M298,688 H278 V698 H258" fill="none" stroke="#000000" stroke-linecap="square" stroke-width="3"/>
   <path d="M268,488 H308" fill="none" stroke="#000000" stroke-linecap="square" stroke-width="3"/>
   <path d="M278,1018 H318 V988" fill="none" stroke="#000000" stroke-linecap="square" stroke-width="4"/>
   <path d="M238,918 H258 V928" fill="none" stroke="#000000" stroke-linecap="square" stroke-width="3"/>
   <path d="M414,68 H462" fill="none" stroke="#000000" stroke-linecap="square" stroke-width="3"/>
   <path d="M84,138 H132" fill="none" stroke="#000000" stroke-linecap="square" stroke-width="3"/>
   <path d="M148,228 H168" fill="none" stroke="#000000" stroke-linecap="square" stroke-width="3"/>
   <path d="M148,268 H170" fill="none" stroke="#000000" stroke-linecap="square" stroke-width="3"/>
   <path d="M208,808 H228" fill="none" stroke="#000000" stroke-linecap="square" stroke-width="4"/>
   <path d="M468,38 H478" fill="none" stroke="#000000" stroke-linecap="square" stroke-width="4"/>
   <path d="M528,508 V518 H538" fill="none" stroke="#000000" stroke-linecap="square" stroke-width="3"/>
   <path d="M84,158 H98 V168 H148" fill="none" stroke="#000000" stroke-linecap="square" stroke-width="3"/>
   <path d="M88,558 H128" fill="none" stroke="#000000" stroke-linecap="square" stroke-width="3"/>
   <path d="M428,918 H448 V928" fill="none" stroke="#000000" stroke-linecap="square" stroke-width="3"/>
   <path d="M428,318 H448" fill="none" stroke="#000000" stroke-linecap="square" stroke-width="3"/>
   <path d="M58,68 H78" fill="none" stroke="#000000" stroke-linecap="square" stroke-width="4"/>
   <path d="M84,148 H132" fill="none" stroke="#000000" stroke-linecap="square" stroke-width="3"/>
   <path d="M84,28 H132" fill="none" stroke="#000000" stroke-linecap="square" stroke-width="3"/>
   <path d="M68,918 H88 V928" fill="none" stroke="#000000" stroke-linecap="square" stroke-width="3"/>
   <path d="M138,118 H148" fill="none" stroke="#000000" stroke-linecap="square" stroke-width="4"/>
   <path d="M328,678 H378" fill="none" stroke="#000000" stroke-linecap="square" stroke-width="3"/>
   <path d="M258,818 H348" fill="none" stroke="#000000" stroke-linecap="square" stroke-width="4"/>
   <path d="M388,88 H408" fill="none" stroke="#000000" stroke-linecap="square" stroke-width="4"/>
   <path d="M414,48 H462" fill="none" stroke="#000000" stroke-linecap="square" stroke-width="3"/>
   <path d="M84,38 H132" fill="none" stroke="#000000" stroke-linecap="square" stroke-width="3"/>
   <path d="M228,248 H248" fill="none" stroke="#000000" stroke-linecap="square" stroke-width="3"/>
   <path d="M218,688 H228" fill="none" stroke="#000000" stroke-linecap="square" stroke-width="3"/>
   <path d="M528,398 H538" fill="none" stroke="#000000" stroke-linecap="square" stroke-width="4"/>
   <circle cx="88" cy="558" fill="#000000" r="5" stroke="none" stroke-width="3"/>
   <circle cx="218" cy="688" fill="#000000" r="5" stroke="none" stroke-width="3"/>
   <text fill="#000000" font-family="monospace" font-size="12" x="108" y="163">0</text>
   <text fill="#000000" font-family="monospace" font-size="12" x="108" y="63">0</text>
   <path d="M118,158 H132" fill="none" stroke="#000000" stroke-linecap="square" stroke-width="3"/>
   <path d="M132,157 V124 L137,119" fill="none" stroke="#000000" stroke-linecap="square" stroke-width="5"/>
   <text fill="#000000" font-family="sans-serif" font-size="7" x="125" y="125">0</text>
   <text fill="#000000" font-family="sans-serif" font-size="7" x="125" y="135">1</text>
   <text fill="#000000" font-family="sans-serif" font-size="7" x="125" y="145">2</text>
   <text fill="#000000" font-family="sans-serif" font-size="7" x="125" y="155">3</text>
   <circle cx="138" cy="118" fill="#000000" r="2" stroke="none" stroke-width="5"/>
   <circle cx="118" cy="128" fill="#000000" r="2" stroke="none" stroke-width="5"/>
   <circle cx="118" cy="138" fill="#000000" r="2" stroke="none" stroke-width="5"/>
   <circle cx="118" cy="148" fill="#000000" r="2" stroke="none" stroke-width="5"/>
   <circle cx="118" cy="158" fill="#000000" r="2" stroke="none" stroke-width="5"/>
   <path d="M118,58 H132" fill="none" stroke="#000000" stroke-linecap="square" stroke-width="3"/>
   <path d="M132,57 V24 L137,19" fill="none" stroke="#000000" stroke-linecap="square" stroke-width="5"/>
   <text fill="#000000" font-family="sans-serif" font-size="7" x="125" y="25">0</text>
   <text fill="#000000" font-family="sans-serif" font-size="7" x="125" y="35">1</text>
   <text fill="#000000" font-family="sans-serif" font-size="7" x="125" y="45">2</text>
   <text fill="#000000" font-family="sans-serif" font-size="7" x="125" y="55">3</text>
   <circle cx="138" cy="18" fill="#000000" r="2" stroke="none" stroke-width="5"/>
   <circle cx="118" cy="28" fill="#000000" r="2" stroke="none" stroke-width="5"/>
   <circle cx="118" cy="38" fill="#000000" r="2" stroke="none" stroke-width="5"/>
   <circle cx="118" cy="48" fill="#000000" r="2" stroke="none" stroke-width="5"/>
   <circle cx="118" cy="58" fill="#000000" r="2" stroke="none" stroke-width="5"/>
   <text fill="#000000" font-family="sans-serif" font-size="16" font-weight="bold" x="153" y="124">UnsignedY</text>
   <path d="M152,105 H240 V132 H152 V128 L148,118 L152,108 Z" fill="none" stroke="#000000" stroke-linecap="square" stroke-width="2"/>
   <circle cx="148" cy="118" fill="#000000" r="2" stroke="none" stroke-width="2"/>
   <text fill="#000000" font-family="sans-serif" font-size="16" font-weight="bold" x="153" y="174">SignY</text>
   <path d="M152,155 H201 V182 H152 V178 L148,168 L152,158 Z" fill="none" stroke="#000000" stroke-linecap="square" stroke-width="2"/>
   <circle cx="148" cy="168" fill="#000000" r="2" stroke="none" stroke-width="2"/>
   <text fill="#000000" font-family="sans-serif" font-size="16" font-weight="bold" x="153" y="24">UnsignedX</text>
   <path d="M152,5 H241 V32 H152 V28 L148,18 L152,8 Z" fill="none" stroke="#000000" stroke-linecap="square" stroke-width="2"/>
   <circle cx="148" cy="18" fill="#000000" r="2" stroke="none" stroke-width="2"/>
   <text fill="#000000" font-family="sans-serif" font-size="16" font-weight="bold" x="153" y="74">SignX</text>
   <path d="M152,55 H202 V82 H152 V78 L148,68 L152,58 Z" fill="none" stroke="#000000" stroke-linecap="square" stroke-width="2"/>
   <circle cx="148" cy="68" fill="#000000" r="2" stroke="none" stroke-width="2"/>
   <text fill="#000000" font-family="sans-serif" font-size="16" font-weight="bold" x="98" y="424">UnsignedX</text>
   <path d="M95,405 H185 V408 L189,418 L185,428 V432 H95 Z" fill="none" stroke="#000000" stroke-linecap="square" stroke-width="2"/>
   <circle cx="188" cy="418" fill="#000000" r="2" stroke="none" stroke-width="2"/>
   <text fill="#000000" font-family="sans-serif" font-size="16" font-weight="bold" x="99" y="464">UnsignedY</text>
   <path d="M96,445 H185 V448 L189,458 L185,468 V472 H96 Z" fill="none" stroke="#000000" stroke-linecap="square" stroke-width="2"/>
   <circle cx="188" cy="458" fill="#000000" r="2" stroke="none" stroke-width="2"/>
   <text fill="#000000" font-family="sans-serif" font-size="16" font-weight="bold" x="98" y="494">UnsignedX</text>
   <path d="M95,475 H185 V478 L189,488 L185,498 V502 H95 Z" fill="none" stroke="#000000" stroke-linecap="square" stroke-width="2"/>
   <circle cx="188" cy="488" fill="#000000" r="2" stroke="none" stroke-width="2"/>
   <text fill="#000000" font-family="sans-serif" font-size="16" font-weight="bold" x="99" y="534">UnsignedY</text>
   <path d="M96,515 H185 V518 L189,528 L185,538 V542 H96 Z" fill="none" stroke="#000000" stroke-linecap="square" stroke-width="2"/>
   <circle cx="188" cy="528" fill="#000000" r="2" stroke="none" stroke-width="2"/>
   <text fill="#000000" font-family="sans-serif" font-size="16" font-weight="bold" x="98" y="594">UnsignedX</text>
   <path d="M95,575 H185 V578 L189,588 L185,598 V602 H95 Z" fill="none" stroke="#000000" stroke-linecap="square" stroke-width="2"/>
   <circle cx="188" cy="588" fill="#000000" r="2" stroke="none" stroke-width="2"/>
   <text fill="#000000" font-family="sans-serif" font-size="16" font-weight="bold" x="99" y="634">UnsignedY</text>
   <path d="M96,615 H185 V618 L189,628 L185,638 V642 H96 Z" fill="none" stroke="#000000" stroke-linecap="square" stroke-width="2"/>
   <circle cx="188" cy="628" fill="#000000" r="2" stroke="none" stroke-width="2"/>
   <text fill="#000000" font-family="monospace" font-size="12" x="258" y="403">0</text>
   <circle cx="268" cy="398" fill="#000000" r="2" stroke="none" stroke-width="1"/>
   <text fill="#000000" font-family="monospace" font-size="12" x="258" y="493">0</text>
   <circle cx="268" cy="488" fill="#000000" r="2" stroke="none" stroke-width="1"/>
   <text fill="#000000" font-family="sans-serif" font-size="16" font-weight="bold" x="543" y="404">Sum</text>
   <path d="M542,385 H581 V412 H542 V408 L538,398 L542,388 Z" fill="none" stroke="#000000" stroke-linecap="square" stroke-width="2"/>
   <circle cx="538" cy="398" fill="#000000" r="2" stroke="none" stroke-width="2"/>
   <text fill="#000000" font-family="sans-serif" font-size="16" font-weight="bold" x="543" y="434">Cout</text>
   <path d="M542,415 H583 V442 H542 V438 L538,428 L542,418 Z" fill="none" stroke="#000000" stroke-linecap="square" stroke-width="2"/>
   <circle cx="538" cy="428" fill="#000000" r="2" stroke="none" stroke-width="2"/>
   <text fill="#000000" font-family="sans-serif" font-size="16" font-weight="bold" x="543" y="494">Sub</text>
   <path d="M542,475 H577 V502 H542 V498 L538,488 L542,478 Z" fill="none" stroke="#000000" stroke-linecap="square" stroke-width="2"/>
   <circle cx="538" cy="488" fill="#000000" r="2" stroke="none" stroke-width="2"/>
   <text fill="#000000" font-family="sans-serif" font-size="16" font-weight="bold" x="543" y="524">Bout</text>
   <path d="M542,505 H583 V532 H542 V528 L538,518 L542,508 Z" fill="none" stroke="#000000" stroke-linecap="square" stroke-width="2"/>
   <circle cx="538" cy="518" fill="#000000" r="2" stroke="none" stroke-width="2"/>
   <rect fill="none" height="18" stroke="#000000" stroke-linecap="square" stroke-width="2" width="38" x="20" y="160"/>
   <text fill="#000000" font-family="sans-serif" font-size="12" x="32" y="175">x4</text>
   <text fill="#000000" font-family="sans-serif" font-size="16" font-weight="bold" x="6" y="176">Y</text>
   <circle cx="58" cy="168" fill="#000000" r="2" stroke="none" stroke-width="2"/>
   <rect fill="none" height="18" stroke="#000000" stroke-linecap="square" stroke-width="2" width="38" x="20" y="60"/>
   <text fill="#000000" font-family="sans-serif" font-size="12" x="32" y="75">x4</text>
   <text fill="#000000" font-family="sans-serif" font-size="16" font-weight="bold" x="5" y="76">X</text>
   <circle cx="58" cy="68" fill="#000000" r="2" stroke="none" stroke-width="2"/>
   <path d="M84,129 V162 L79,167" fill="none" stroke="#000000" stroke-linecap="square" stroke-width="5"/>
   <text fill="#000000" font-family="sans-serif" font-size="7" x="87" y="136">0</text>
   <text fill="#000000" font-family="sans-serif" font-size="7" x="87" y="146">1</text>
   <text fill="#000000" font-family="sans-serif" font-size="7" x="87" y="156">2</text>
   <text fill="#000000" font-family="sans-serif" font-size="7" x="87" y="166">3</text>
   <circle cx="78" cy="168" fill="#000000" r="2" stroke="none" stroke-width="5"/>
   <circle cx="98" cy="128" fill="#000000" r="2" stroke="none" stroke-width="5"/>
   <circle cx="98" cy="138" fill="#000000" r="2" stroke="none" stroke-width="5"/>
   <circle cx="98" cy="148" fill="#000000" r="2" stroke="none" stroke-width="5"/>
   <circle cx="98" cy="158" fill="#000000" r="2" stroke="none" stroke-width="5"/>
   <text fill="#000000" font-family="sans-serif" font-size="16" font-weight="bold" x="13" y="564">IsGrater</text>
   <path d="M10,545 H75 V548 L79,558 L75,568 V572 H10 Z" fill="none" stroke="#000000" stroke-linecap="square" stroke-width="2"/>
   <circle cx="78" cy="558" fill="#000000" r="2" stroke="none" stroke-width="2"/>
   <path d="M84,29 V62 L79,67" fill="none" stroke="#000000" stroke-linecap="square" stroke-width="5"/>
   <text fill="#000000" font-family="sans-serif" font-size="7" x="87" y="36">0</text>
   <text fill="#000000" font-family="sans-serif" font-size="7" x="87" y="46">1</text>
   <text fill="#000000" font-family="sans-serif" font-size="7" x="87" y="56">2</text>
   <text fill="#000000" font-family="sans-serif" font-size="7" x="87" y="66">3</text>
   <circle cx="78" cy="68" fill="#000000" r="2" stroke="none" stroke-width="5"/>
   <circle cx="98" cy="28" fill="#000000" r="2" stroke="none" stroke-width="5"/>
   <circle cx="98" cy="38" fill="#000000" r="2" stroke="none" stroke-width="5"/>
   <circle cx="98" cy="48" fill="#000000" r="2" stroke="none" stroke-width="5"/>
   <circle cx="98" cy="58" fill="#000000" r="2" stroke="none" stroke-width="5"/>
   <path d="M148,558 L129,551 V565 L148,558" fill="none" stroke="#000000" stroke-linecap="square" stroke-width="2"/>
   <circle cx="153" cy="558" fill="none" r="4.5" stroke="#000000" stroke-width="2"/>
   <circle cx="158" cy="558" fill="#000000" r="2" stroke="none" stroke-width="2"/>
   <circle cx="128" cy="558" fill="#000000" r="2" stroke="none" stroke-width="2"/>
   <circle cx="218" cy="518" fill="#C0C0C0" r="3" stroke="none" stroke-width="1"/>
   <text fill="#808080" font-family="sans-serif" font-size="12" x="211" y="503">0</text>
   <path d="M208,488 L238,498 V518 L208,528 Z" fill="none" stroke="#000000" stroke-linecap="square" stroke-width="2"/>
   <text fill="#000000" font-family="sans-serif" font-size="12" x="211" y="515">MUX</text>
   <circle cx="208" cy="498" fill="#000000" r="2" stroke="none" stroke-width="2"/>
   <circle cx="208" cy="518" fill="#000000" r="2" stroke="none" stroke-width="2"/>
   <circle cx="218" cy="528" fill="#000000" r="2" stroke="none" stroke-width="2"/>
   <circle cx="238" cy="508" fill="#000000" r="2" stroke="none" stroke-width="2"/>
   <circle cx="218" cy="618" fill="#C0C0C0" r="3" stroke="none" stroke-width="1"/>
   <text fill="#808080" font-family="sans-serif" font-size="12" x="211" y="603">0</text>
   <path d="M208,588 L238,598 V618 L208,628 Z" fill="none" stroke="#000000" stroke-linecap="square" stroke-width="2"/>
   <text fill="#000000" font-family="sans-serif" font-size="12" x="211" y="615">MUX</text>
   <circle cx="208" cy="598" fill="#000000" r="2" stroke="none" stroke-width="2"/>
   <circle cx="208" cy="618" fill="#000000" r="2" stroke="none" stroke-width="2"/>
   <circle cx="218" cy="628" fill="#000000" r="2" stroke="none" stroke-width="2"/>
   <circle cx="238" cy="608" fill="#000000" r="2" stroke="none" stroke-width="2"/>
   <rect fill="#000000" height="3" stroke="none" stroke-linecap="square" stroke-width="1" width="10" x="308" y="397"/>
   <text fill="#404040" font-family="Dialog" font-size="12" x="323" y="402">Cin</text>
   <rect fill="#000000" height="4" stroke="none" stroke-linecap="square" stroke-width="1" width="10" x="308" y="416"/>
   <text fill="#404040" font-family="Dialog" font-size="12" x="323" y="422">A</text>
   <rect fill="#000000" height="4" stroke="none" stroke-linecap="square" stroke-width="1" width="10" x="308" y="436"/>
   <text fill="#404040" font-family="Dialog" font-size="12" x="323" y="442">B</text>
   <rect fill="#000000" height="4" stroke="none" stroke-linecap="square" stroke-width="1" width="10" x="518" y="396"/>
   <text fill="#404040" font-family="Dialog" font-size="12" x="505" y="402">S</text>
   <rect fill="#000000" height="3" stroke="none" stroke-linecap="square" stroke-width="1" width="10" x="518" y="417"/>
   <text fill="#404040" font-family="Dialog" font-size="12" x="487" y="422">Cout</text>
   <rect fill="#000000" height="20" stroke="none" stroke-linecap="square" stroke-width="1" width="200" x="318" y="448"/>
   <rect fill="none" height="80" stroke="#000000" stroke-linecap="square" stroke-width="2" width="200" x="318" y="388"/>
   <text fill="#FFFFFF" font-family="Dialog" font-size="14" font-weight="bold" x="380" y="462">Adder_4bit</text>
   <circle cx="308" cy="398" fill="#000000" r="2" stroke="none" stroke-width="1"/>
   <circle cx="308" cy="418" fill="#000000" r="2" stroke="none" stroke-width="1"/>
   <circle cx="308" cy="438" fill="#000000" r="2" stroke="none" stroke-width="1"/>
   <circle cx="528" cy="398" fill="#000000" r="2" stroke="none" stroke-width="1"/>
   <circle cx="528" cy="418" fill="#000000" r="2" stroke="none" stroke-width="1"/>
   <rect fill="#000000" height="3" stroke="none" stroke-linecap="square" stroke-width="1" width="10" x="308" y="487"/>
   <text fill="#404040" font-family="Dialog" font-size="12" x="323" y="492">Bin</text>
   <rect fill="#000000" height="4" stroke="none" stroke-linecap="square" stroke-width="1" width="10" x="308" y="506"/>
   <text fill="#404040" font-family="Dialog" font-size="12" x="323" y="512">X</text>
   <rect fill="#000000" height="4" stroke="none" stroke-linecap="square" stroke-width="1" width="10" x="308" y="526"/>
   <text fill="#404040" font-family="Dialog" font-size="12" x="323" y="532">Y</text>
   <rect fill="#000000" height="4" stroke="none" stroke-linecap="square" stroke-width="1" width="10" x="518" y="486"/>
   <text fill="#404040" font-family="Dialog" font-size="12" x="504" y="492">D</text>
   <rect fill="#000000" height="3" stroke="none" stroke-linecap="square" stroke-width="1" width="10" x="518" y="507"/>
   <text fill="#404040" font-family="Dialog" font-size="12" x="488" y="512">Bout</text>
   <rect fill="#000000" height="20" stroke="none" stroke-linecap="square" stroke-width="1" width="200" x="318" y="538"/>
   <rect fill="none" height="80" stroke="#000000" stroke-linecap="square" stroke-width="2" width="200" x="318" y="478"/>
   <text fill="#FFFFFF" font-family="Dialog" font-size="14" font-weight="bold" x="360" y="552">Substractor_4bit</text>
   <circle cx="308" cy="488" fill="#000000" r="2" stroke="none" stroke-width="1"/>
   <circle cx="308" cy="508" fill="#000000" r="2" stroke="none" stroke-width="1"/>
   <circle cx="308" cy="528" fill="#000000" r="2" stroke="none" stroke-width="1"/>
   <circle cx="528" cy="488" fill="#000000" r="2" stroke="none" stroke-width="1"/>
   <circle cx="528" cy="508" fill="#000000" r="2" stroke="none" stroke-width="1"/>
   <path d="M423,73 L433,83" fill="none" stroke="#FF0000" stroke-linecap="square" stroke-width="1"/>
   <path d="M423,83 L433,73" fill="none" stroke="#FF0000" stroke-linecap="square" stroke-width="1"/>
   <text fill="#000000" font-family="sans-serif" font-size="16" font-weight="bold" x="314" y="124">SignRaw</text>
   <path d="M311,105 H385 V108 L389,118 L385,128 V132 H311 Z" fill="none" stroke="#000000" stroke-linecap="square" stroke-width="2"/>
   <circle cx="388" cy="118" fill="#000000" r="2" stroke="none" stroke-width="2"/>
   <path d="M462,77 V44 L467,39" fill="none" stroke="#000000" stroke-linecap="square" stroke-width="5"/>
   <text fill="#000000" font-family="sans-serif" font-size="7" x="455" y="45">0</text>
   <text fill="#000000" font-family="sans-serif" font-size="7" x="455" y="55">1</text>
   <text fill="#000000" font-family="sans-serif" font-size="7" x="455" y="65">2</text>
   <text fill="#000000" font-family="sans-serif" font-size="7" x="455" y="75">3</text>
   <circle cx="468" cy="38" fill="#000000" r="2" stroke="none" stroke-width="5"/>
   <circle cx="448" cy="48" fill="#000000" r="2" stroke="none" stroke-width="5"/>
   <circle cx="448" cy="58" fill="#000000" r="2" stroke="none" stroke-width="5"/>
   <circle cx="448" cy="68" fill="#000000" r="2" stroke="none" stroke-width="5"/>
   <circle cx="448" cy="78" fill="#000000" r="2" stroke="none" stroke-width="5"/>
   <text fill="#000000" font-family="sans-serif" font-size="16" font-weight="bold" x="275" y="94">UnsignedRaw</text>
   <path d="M272,75 H385 V78 L389,88 L385,98 V102 H272 Z" fill="none" stroke="#000000" stroke-linecap="square" stroke-width="2"/>
   <circle cx="388" cy="88" fill="#000000" r="2" stroke="none" stroke-width="2"/>
   <rect fill="none" height="18" rx="3" ry="3" stroke="#000000" stroke-linecap="square" stroke-width="2" width="38" x="480" y="30"/>
   <text fill="#000000" font-family="sans-serif" font-size="12" x="492" y="45">x4</text>
   <text fill="#000000" font-family="sans-serif" font-size="16" font-weight="bold" x="520" y="46">Result</text>
   <circle cx="478" cy="38" fill="#000000" r="2" stroke="none" stroke-width="2"/>
   <path d="M428,78 H414" fill="none" stroke="#000000" stroke-linecap="square" stroke-width="3"/>
   <path d="M414,49 V82 L409,87" fill="none" stroke="#000000" stroke-linecap="square" stroke-width="5"/>
   <text fill="#000000" font-family="sans-serif" font-size="7" x="417" y="56">0</text>
   <text fill="#000000" font-family="sans-serif" font-size="7" x="417" y="66">1</text>
   <text fill="#000000" font-family="sans-serif" font-size="7" x="417" y="76">2</text>
   <text fill="#000000" font-family="sans-serif" font-size="7" x="417" y="86">3</text>
   <circle cx="408" cy="88" fill="#000000" r="2" stroke="none" stroke-width="5"/>
   <circle cx="428" cy="48" fill="#000000" r="2" stroke="none" stroke-width="5"/>
   <circle cx="428" cy="58" fill="#000000" r="2" stroke="none" stroke-width="5"/>
   <circle cx="428" cy="68" fill="#000000" r="2" stroke="none" stroke-width="5"/>
   <circle cx="428" cy="78" fill="#000000" r="2" stroke="none" stroke-width="5"/>
   <rect fill="none" height="60" stroke="#000000" stroke-linecap="square" stroke-width="2" width="40" x="83" y="928"/>
   <rect fill="#404040" height="4" stroke="none" stroke-linecap="square" stroke-width="1" width="19" x="91" y="936"/>
   <rect fill="#404040" height="19" stroke="none" stroke-linecap="square" stroke-width="1" width="4" x="111" y="938"/>
   <rect fill="#404040" height="19" stroke="none" stroke-linecap="square" stroke-width="1" width="4" x="111" y="958"/>
   <rect fill="#404040" height="4" stroke="none" stroke-linecap="square" stroke-width="1" width="19" x="91" y="975"/>
   <rect fill="#404040" height="19" stroke="none" stroke-linecap="square" stroke-width="1" width="4" x="86" y="958"/>
   <rect fill="#404040" height="19" stroke="none" stroke-linecap="square" stroke-width="1" width="4" x="86" y="938"/>
   <rect fill="#404040" height="4" stroke="none" stroke-linecap="square" stroke-width="1" width="19" x="91" y="956"/>
   <circle cx="118" cy="978" fill="#404040" r="2.5" stroke="none" stroke-width="1"/>
   <circle cx="108" cy="928" fill="#000000" r="2" stroke="none" stroke-width="1"/>
   <circle cx="118" cy="928" fill="#000000" r="2" stroke="none" stroke-width="1"/>
   <circle cx="108" cy="988" fill="#000000" r="2" stroke="none" stroke-width="1"/>
   <circle cx="98" cy="988" fill="#000000" r="2" stroke="none" stroke-width="1"/>
   <circle cx="88" cy="988" fill="#000000" r="2" stroke="none" stroke-width="1"/>
   <circle cx="98" cy="928" fill="#000000" r="2" stroke="none" stroke-width="1"/>
   <circle cx="88" cy="928" fill="#000000" r="2" stroke="none" stroke-width="1"/>
   <circle cx="118" cy="988" fill="#000000" r="2" stroke="none" stroke-width="1"/>
   <rect fill="none" height="60" stroke="#000000" stroke-linecap="square" stroke-width="2" width="40" x="443" y="928"/>
   <rect fill="#404040" height="4" stroke="none" stroke-linecap="square" stroke-width="1" width="19" x="451" y="936"/>
   <rect fill="#404040" height="19" stroke="none" stroke-linecap="square" stroke-width="1" width="4" x="471" y="938"/>
   <rect fill="#404040" height="19" stroke="none" stroke-linecap="square" stroke-width="1" width="4" x="471" y="958"/>
   <rect fill="#404040" height="4" stroke="none" stroke-linecap="square" stroke-width="1" width="19" x="451" y="975"/>
   <rect fill="#404040" height="19" stroke="none" stroke-linecap="square" stroke-width="1" width="4" x="446" y="958"/>
   <rect fill="#404040" height="19" stroke="none" stroke-linecap="square" stroke-width="1" width="4" x="446" y="938"/>
   <rect fill="#404040" height="4" stroke="none" stroke-linecap="square" stroke-width="1" width="19" x="451" y="956"/>
   <circle cx="478" cy="978" fill="#404040" r="2.5" stroke="none" stroke-width="1"/>
   <circle cx="468" cy="928" fill="#000000" r="2" stroke="none" stroke-width="1"/>
   <circle cx="478" cy="928" fill="#000000" r="2" stroke="none" stroke-width="1"/>
   <circle cx="468" cy="988" fill="#000000" r="2" stroke="none" stroke-width="1"/>
   <circle cx="458" cy="988" fill="#000000" r="2" stroke="none" stroke-width="1"/>
   <circle cx="448" cy="988" fill="#000000" r="2" stroke="none" stroke-width="1"/>
   <circle cx="458" cy="928" fill="#000000" r="2" stroke="none" stroke-width="1"/>
   <circle cx="448" cy="928" fill="#000000" r="2" stroke="none" stroke-width="1"/>
   <circle cx="478" cy="988" fill="#000000" r="2" stroke="none" stroke-width="1"/>
   <rect fill="none" height="60" stroke="#000000" stroke-linecap="square" stroke-width="2" width="40" x="253" y="928"/>
   <rect fill="#404040" height="4" stroke="none" stroke-linecap="square" stroke-width="1" width="19" x="261" y="936"/>
   <rect fill="#404040" height="19" stroke="none" stroke-linecap="square" stroke-width="1" width="4" x="281" y="938"/>
   <rect fill="#404040" height="19" stroke="none" stroke-linecap="square" stroke-width="1" width="4" x="281" y="958"/>
   <rect fill="#404040" height="4" stroke="none" stroke-linecap="square" stroke-width="1" width="19" x="261" y="975"/>
   <rect fill="#404040" height="19" stroke="none" stroke-linecap="square" stroke-width="1" width="4" x="256" y="958"/>
   <rect fill="#404040" height="19" stroke="none" stroke-linecap="square" stroke-width="1" width="4" x="256" y="938"/>
   <rect fill="#404040" height="4" stroke="none" stroke-linecap="square" stroke-width="1" width="19" x="261" y="956"/>
   <circle cx="288" cy="978" fill="#404040" r="2.5" stroke="none" stroke-width="1"/>
   <circle cx="278" cy="928" fill="#000000" r="2" stroke="none" stroke-width="1"/>
   <circle cx="288" cy="928" fill="#000000" r="2" stroke="none" stroke-width="1"/>
   <circle cx="278" cy="988" fill="#000000" r="2" stroke="none" stroke-width="1"/>
   <circle cx="268" cy="988" fill="#000000" r="2" stroke="none" stroke-width="1"/>
   <circle cx="258" cy="988" fill="#000000" r="2" stroke="none" stroke-width="1"/>
   <circle cx="268" cy="928" fill="#000000" r="2" stroke="none" stroke-width="1"/>
   <circle cx="258" cy="928" fill="#000000" r="2" stroke="none" stroke-width="1"/>
   <circle cx="288" cy="988" fill="#000000" r="2" stroke="none" stroke-width="1"/>
   <rect fill="none" height="60" stroke="#000000" stroke-linecap="square" stroke-width="2" width="40" x="303" y="928"/>
   <rect fill="#404040" height="4" stroke="none" stroke-linecap="square" stroke-width="1" width="19" x="311" y="936"/>
   <rect fill="#404040" height="19" stroke="none" stroke-linecap="square" stroke-width="1" width="4" x="331" y="938"/>
   <rect fill="#404040" height="19" stroke="none" stroke-linecap="square" stroke-width="1" width="4" x="331" y="958"/>
   <rect fill="#404040" height="4" stroke="none" stroke-linecap="square" stroke-width="1" width="19" x="311" y="975"/>
   <rect fill="#404040" height="19" stroke="none" stroke-linecap="square" stroke-width="1" width="4" x="306" y="958"/>
   <rect fill="#404040" height="19" stroke="none" stroke-linecap="square" stroke-width="1" width="4" x="306" y="938"/>
   <rect fill="#404040" height="4" stroke="none" stroke-linecap="square" stroke-width="1" width="19" x="311" y="956"/>
   <circle cx="338" cy="978" fill="#404040" r="2.5" stroke="none" stroke-width="1"/>
   <circle cx="318" cy="988" fill="#000000" r="2" stroke="none" stroke-width="1"/>
   <circle cx="338" cy="988" fill="#000000" r="2" stroke="none" stroke-width="1"/>
   <text fill="#000000" font-family="sans-serif" font-size="16" font-weight="bold" x="365" y="1024">UnsignedRaw</text>
   <path d="M362,1005 H475 V1008 L479,1018 L475,1028 V1032 H362 Z" fill="none" stroke="#000000" stroke-linecap="square" stroke-width="2"/>
   <circle cx="478" cy="1018" fill="#000000" r="2" stroke="none" stroke-width="2"/>
   <rect fill="none" height="60" stroke="#000000" stroke-linecap="square" stroke-width="2" width="40" x="133" y="928"/>
   <rect fill="#404040" height="4" stroke="none" stroke-linecap="square" stroke-width="1" width="19" x="141" y="936"/>
   <rect fill="#404040" height="19" stroke="none" stroke-linecap="square" stroke-width="1" width="4" x="161" y="938"/>
   <rect fill="#404040" height="19" stroke="none" stroke-linecap="square" stroke-width="1" width="4" x="161" y="958"/>
   <rect fill="#404040" height="4" stroke="none" stroke-linecap="square" stroke-width="1" width="19" x="141" y="975"/>
   <rect fill="#404040" height="19" stroke="none" stroke-linecap="square" stroke-width="1" width="4" x="136" y="958"/>
   <rect fill="#404040" height="19" stroke="none" stroke-linecap="square" stroke-width="1" width="4" x="136" y="938"/>
   <rect fill="#404040" height="4" stroke="none" stroke-linecap="square" stroke-width="1" width="19" x="141" y="956"/>
   <circle cx="168" cy="978" fill="#404040" r="2.5" stroke="none" stroke-width="1"/>
   <circle cx="148" cy="988" fill="#000000" r="2" stroke="none" stroke-width="1"/>
   <circle cx="168" cy="988" fill="#000000" r="2" stroke="none" stroke-width="1"/>
   <text fill="#000000" font-family="sans-serif" font-size="16" font-weight="bold" x="354" y="924">SignRaw</text>
   <path d="M351,905 H425 V908 L429,918 L425,928 V932 H351 Z" fill="none" stroke="#000000" stroke-linecap="square" stroke-width="2"/>
   <circle cx="428" cy="918" fill="#000000" r="2" stroke="none" stroke-width="2"/>
   <text fill="#000000" font-family="sans-serif" font-size="16" font-weight="bold" x="384" y="963">=</text>
   <text fill="#000000" font-family="sans-serif" font-size="16" font-weight="bold" x="17" y="924">SignX</text>
   <path d="M14,905 H65 V908 L69,918 L65,928 V932 H14 Z" fill="none" stroke="#000000" stroke-linecap="square" stroke-width="2"/>
   <circle cx="68" cy="918" fill="#000000" r="2" stroke="none" stroke-width="2"/>
   <text fill="#000000" font-family="sans-serif" font-size="16" font-weight="bold" x="189" y="1024">UnsignedY</text>
   <path d="M186,1005 H275 V1008 L279,1018 L275,1028 V1032 H186 Z" fill="none" stroke="#000000" stroke-linecap="square" stroke-width="2"/>
   <circle cx="278" cy="1018" fill="#000000" r="2" stroke="none" stroke-width="2"/>
   <rect fill="none" height="60" stroke="#000000" stroke-linecap="square" stroke-width="2" width="40" x="493" y="928"/>
   <rect fill="#404040" height="4" stroke="none" stroke-linecap="square" stroke-width="1" width="19" x="501" y="936"/>
   <rect fill="#404040" height="19" stroke="none" stroke-linecap="square" stroke-width="1" width="4" x="521" y="938"/>
   <rect fill="#404040" height="19" stroke="none" stroke-linecap="square" stroke-width="1" width="4" x="521" y="958"/>
   <rect fill="#404040" height="4" stroke="none" stroke-linecap="square" stroke-width="1" width="19" x="501" y="975"/>
   <rect fill="#404040" height="19" stroke="none" stroke-linecap="square" stroke-width="1" width="4" x="496" y="958"/>
   <rect fill="#404040" height="19" stroke="none" stroke-linecap="square" stroke-width="1" width="4" x="496" y="938"/>
   <rect fill="#404040" height="4" stroke="none" stroke-linecap="square" stroke-width="1" width="19" x="501" y="956"/>
   <circle cx="528" cy="978" fill="#404040" r="2.5" stroke="none" stroke-width="1"/>
   <circle cx="508" cy="988" fill="#000000" r="2" stroke="none" stroke-width="1"/>
   <circle cx="528" cy="988" fill="#000000" r="2" stroke="none" stroke-width="1"/>
   <text fill="#000000" font-family="sans-serif" font-size="16" font-weight="bold" x="18" y="1024">UnsignedX</text>
   <path d="M15,1005 H105 V1008 L109,1018 L105,1028 V1032 H15 Z" fill="none" stroke="#000000" stroke-linecap="square" stroke-width="2"/>
   <circle cx="108" cy="1018" fill="#000000" r="2" stroke="none" stroke-width="2"/>
   <text fill="#000000" font-family="sans-serif" font-size="16" font-weight="bold" x="188" y="924">SignY</text>
   <path d="M185,905 H235 V908 L239,918 L235,928 V932 H185 Z" fill="none" stroke="#000000" stroke-linecap="square" stroke-width="2"/>
   <circle cx="238" cy="918" fill="#000000" r="2" stroke="none" stroke-width="2"/>
   <text fill="#000000" font-family="sans-serif" font-size="16" font-weight="bold" x="204" y="963">+</text>
   <text fill="#000000" font-family="sans-serif" font-size="16" font-weight="bold" x="253" y="254">IsSub</text>
   <path d="M252,235 H300 V262 H252 V258 L248,248 L252,238 Z" fill="none" stroke="#000000" stroke-linecap="square" stroke-width="2"/>
   <circle cx="248" cy="248" fill="#000000" r="2" stroke="none" stroke-width="2"/>
   <path d="M228,248 Q208,223 178,223 Q191,248 178,273 Q208,273 228,248 Z" fill="none" stroke="#000000" stroke-linecap="square" stroke-width="2"/>
   <path d="M168,223 Q181,248 168,273" fill="none" stroke="#000000" stroke-linecap="square" stroke-width="2"/>
   <text fill="#000000" font-family="sans-serif" font-size="16" font-weight="bold" x="98" y="314">UnsignedX</text>
   <path d="M95,295 H185 V298 L189,308 L185,318 V322 H95 Z" fill="none" stroke="#000000" stroke-linecap="square" stroke-width="2"/>
   <circle cx="188" cy="308" fill="#000000" r="2" stroke="none" stroke-width="2"/>
   <text fill="#000000" font-family="sans-serif" font-size="16" font-weight="bold" x="99" y="354">UnsignedY</text>
   <path d="M96,335 H185 V338 L189,348 L185,358 V362 H96 Z" fill="none" stroke="#000000" stroke-linecap="square" stroke-width="2"/>
   <circle cx="188" cy="348" fill="#000000" r="2" stroke="none" stroke-width="2"/>
   <rect fill="#000000" height="4" stroke="none" stroke-linecap="square" stroke-width="1" width="10" x="208" y="316"/>
   <text fill="#404040" font-family="Dialog" font-size="12" x="223" y="322">A</text>
   <rect fill="#000000" height="4" stroke="none" stroke-linecap="square" stroke-width="1" width="10" x="208" y="336"/>
   <text fill="#404040" font-family="Dialog" font-size="12" x="223" y="342">B</text>
   <rect fill="#000000" height="3" stroke="none" stroke-linecap="square" stroke-width="1" width="10" x="418" y="317"/>
   <text fill="#404040" font-family="Dialog" font-size="12" x="388" y="322">AgtB</text>
   <rect fill="#000000" height="20" stroke="none" stroke-linecap="square" stroke-width="1" width="200" x="218" y="348"/>
   <rect fill="none" height="60" stroke="#000000" stroke-linecap="square" stroke-width="2" width="200" x="218" y="308"/>
   <text fill="#FFFFFF" font-family="Dialog" font-size="14" font-weight="bold" x="264" y="362">Is_Greater_4bit</text>
   <circle cx="208" cy="318" fill="#000000" r="2" stroke="none" stroke-width="1"/>
   <circle cx="208" cy="338" fill="#000000" r="2" stroke="none" stroke-width="1"/>
   <circle cx="428" cy="318" fill="#000000" r="2" stroke="none" stroke-width="1"/>
   <text fill="#000000" font-family="sans-serif" font-size="16" font-weight="bold" x="98" y="274">SignY</text>
   <path d="M95,255 H145 V258 L149,268 L145,278 V282 H95 Z" fill="none" stroke="#000000" stroke-linecap="square" stroke-width="2"/>
   <circle cx="148" cy="268" fill="#000000" r="2" stroke="none" stroke-width="2"/>
   <text fill="#000000" font-family="sans-serif" font-size="16" font-weight="bold" x="453" y="324">IsGrater</text>
   <path d="M452,305 H516 V332 H452 V328 L448,318 L452,308 Z" fill="none" stroke="#000000" stroke-linecap="square" stroke-width="2"/>
   <circle cx="448" cy="318" fill="#000000" r="2" stroke="none" stroke-width="2"/>
   <text fill="#000000" font-family="sans-serif" font-size="16" font-weight="bold" x="97" y="234">SignX</text>
   <path d="M94,215 H145 V218 L149,228 L145,238 V242 H94 Z" fill="none" stroke="#000000" stroke-linecap="square" stroke-width="2"/>
   <circle cx="148" cy="228" fill="#000000" r="2" stroke="none" stroke-width="2"/>
   <text fill="#000000" font-family="sans-serif" font-size="16" font-weight="bold" x="169" y="874">IsSub</text>
   <path d="M166,855 H215 V858 L219,868 L215,878 V882 H166 Z" fill="none" stroke="#000000" stroke-linecap="square" stroke-width="2"/>
   <circle cx="218" cy="868" fill="#000000" r="2" stroke="none" stroke-width="2"/>
   <circle cx="238" cy="710" fill="#C0C0C0" r="3" stroke="none" stroke-width="1"/>
   <text fill="#808080" font-family="sans-serif" font-size="12" x="231" y="693">0</text>
   <path d="M228,678 L258,688 V708 L228,718 Z" fill="none" stroke="#000000" stroke-linecap="square" stroke-width="2"/>
   <text fill="#000000" font-family="sans-serif" font-size="12" x="231" y="705">MUX</text>
   <circle cx="228" cy="688" fill="#000000" r="2" stroke="none" stroke-width="2"/>
   <circle cx="228" cy="708" fill="#000000" r="2" stroke="none" stroke-width="2"/>
   <circle cx="238" cy="718" fill="#000000" r="2" stroke="none" stroke-width="2"/>
   <circle cx="258" cy="698" fill="#000000" r="2" stroke="none" stroke-width="2"/>
   <text fill="#000000" font-family="sans-serif" font-size="16" font-weight="bold" x="157" y="724">SignX</text>
   <path d="M154,705 H205 V708 L209,718 L205,728 V732 H154 Z" fill="none" stroke="#000000" stroke-linecap="square" stroke-width="2"/>
   <circle cx="208" cy="718" fill="#000000" r="2" stroke="none" stroke-width="2"/>
   <circle cx="308" cy="688" fill="#C0C0C0" r="3" stroke="none" stroke-width="1"/>
   <text fill="#808080" font-family="sans-serif" font-size="12" x="301" y="673">0</text>
   <path d="M298,658 L328,668 V688 L298,698 Z" fill="none" stroke="#000000" stroke-linecap="square" stroke-width="2"/>
   <text fill="#000000" font-family="sans-serif" font-size="12" x="301" y="685">MUX</text>
   <circle cx="298" cy="668" fill="#000000" r="2" stroke="none" stroke-width="2"/>
   <circle cx="298" cy="688" fill="#000000" r="2" stroke="none" stroke-width="2"/>
   <circle cx="308" cy="698" fill="#000000" r="2" stroke="none" stroke-width="2"/>
   <circle cx="328" cy="678" fill="#000000" r="2" stroke="none" stroke-width="2"/>
   <text fill="#000000" font-family="sans-serif" font-size="16" font-weight="bold" x="158" y="694">SignY</text>
   <path d="M155,675 H205 V678 L209,688 L205,698 V702 H155 Z" fill="none" stroke="#000000" stroke-linecap="square" stroke-width="2"/>
   <circle cx="208" cy="688" fill="#000000" r="2" stroke="none" stroke-width="2"/>
   <text fill="#000000" font-family="sans-serif" font-size="16" font-weight="bold" x="159" y="784">IsSub</text>
   <path d="M156,765 H205 V768 L209,778 L205,788 V792 H156 Z" fill="none" stroke="#000000" stroke-linecap="square" stroke-width="2"/>
   <circle cx="208" cy="778" fill="#000000" r="2" stroke="none" stroke-width="2"/>
   <text fill="#000000" font-family="sans-serif" font-size="16" font-weight="bold" x="353" y="824">UnsignedRaw</text>
   <path d="M352,805 H464 V832 H352 V828 L348,818 L352,808 Z" fill="none" stroke="#000000" stroke-linecap="square" stroke-width="2"/>
   <circle cx="348" cy="818" fill="#000000" r="2" stroke="none" stroke-width="2"/>
   <text fill="#000000" font-family="sans-serif" font-size="16" font-weight="bold" x="143" y="754">IsGrater</text>
   <path d="M140,735 H205 V738 L209,748 L205,758 V762 H140 Z" fill="none" stroke="#000000" stroke-linecap="square" stroke-width="2"/>
   <circle cx="208" cy="748" fill="#000000" r="2" stroke="none" stroke-width="2"/>
   <text fill="#000000" font-family="sans-serif" font-size="16" font-weight="bold" x="383" y="684">SignRaw</text>
   <path d="M382,665 H455 V692 H382 V688 L378,678 L382,668 Z" fill="none" stroke="#000000" stroke-linecap="square" stroke-width="2"/>
   <circle cx="378" cy="678" fill="#000000" r="2" stroke="none" stroke-width="2"/>
   <text fill="#000000" font-family="sans-serif" font-size="16" font-weight="bold" x="172" y="844">Sub</text>
   <path d="M169,825 H205 V828 L209,838 L205,848 V852 H169 Z" fill="none" stroke="#000000" stroke-linecap="square" stroke-width="2"/>
   <circle cx="208" cy="838" fill="#000000" r="2" stroke="none" stroke-width="2"/>
   <text fill="#000000" font-family="sans-serif" font-size="16" font-weight="bold" x="168" y="814">Sum</text>
   <path d="M165,795 H205 V798 L209,808 L205,818 V822 H165 Z" fill="none" stroke="#000000" stroke-linecap="square" stroke-width="2"/>
   <circle cx="208" cy="808" fill="#000000" r="2" stroke="none" stroke-width="2"/>
   <circle cx="238" cy="830" fill="#C0C0C0" r="3" stroke="none" stroke-width="1"/>
   <text fill="#808080" font-family="sans-serif" font-size="12" x="231" y="813">0</text>
   <path d="M228,798 L258,808 V828 L228,838 Z" fill="none" stroke="#000000" stroke-linecap="square" stroke-width="2"/>
   <text fill="#000000" font-family="sans-serif" font-size="12" x="231" y="825">MUX</text>
   <circle cx="228" cy="808" fill="#000000" r="2" stroke="none" stroke-width="2"/>
   <circle cx="228" cy="828" fill="#000000" r="2" stroke="none" stroke-width="2"/>
   <circle cx="238" cy="838" fill="#000000" r="2" stroke="none" stroke-width="2"/>
   <circle cx="258" cy="818" fill="#000000" r="2" stroke="none" stroke-width="2"/>
</svg>
