<?xml version="1.0" encoding="UTF-8" standalone="no"?>
<svg xmlns="http://www.w3.org/2000/svg" height="464" version="1.1" viewBox="0 0 582 464" width="582">
   <path d="M208,148 H228" fill="none" stroke="#000000" stroke-linecap="square" stroke-width="3"/>
   <path d="M208,268 H228" fill="none" stroke="#000000" stroke-linecap="square" stroke-width="3"/>
   <path d="M208,388 H228" fill="none" stroke="#000000" stroke-linecap="square" stroke-width="3"/>
   <path d="M208,28 H228" fill="none" stroke="#000000" stroke-linecap="square" stroke-width="3"/>
   <path d="M508,18 H518" fill="none" stroke="#000000" stroke-linecap="square" stroke-width="4"/>
   <path d="M208,178 H218 V168 H228" fill="none" stroke="#000000" stroke-linecap="square" stroke-width="3"/>
   <path d="M208,58 H218 V48 H228" fill="none" stroke="#000000" stroke-linecap="square" stroke-width="3"/>
   <path d="M208,298 H218 V288 H228" fill="none" stroke="#000000" stroke-linecap="square" stroke-width="3"/>
   <path d="M208,418 H218 V408 H228" fill="none" stroke="#000000" stroke-linecap="square" stroke-width="3"/>
   <path d="M58,18 H128" fill="none" stroke="#000000" stroke-linecap="square" stroke-width="3"/>
   <path d="M448,408 H518" fill="none" stroke="#000000" stroke-linecap="square" stroke-width="3"/>
   <path d="M58,88 H78" fill="none" stroke="#000000" stroke-linecap="square" stroke-width="4"/>
   <path d="M58,208 H78" fill="none" stroke="#000000" stroke-linecap="square" stroke-width="4"/>
   <path d="M448,168 H458 V238 H168 V328 H218 V308 H228" fill="none" stroke="#000000" stroke-linecap="square" stroke-width="3"/>
   <path d="M448,288 H458 V358 H168 V438 H218 V428 H228" fill="none" stroke="#000000" stroke-linecap="square" stroke-width="3"/>
   <path d="M448,48 H458 V118 H168 V208 H218 V188 H228" fill="none" stroke="#000000" stroke-linecap="square" stroke-width="3"/>
   <path d="M208,88 H218 V68 H228" fill="none" stroke="#000000" stroke-linecap="square" stroke-width="3"/>
   <text fill="#000000" font-family="sans-serif" font-size="16" font-weight="bold" x="133" y="84">X1</text>
   <path d="M132,65 H156 V92 H132 V88 L128,78 L132,68 Z" fill="none" stroke="#000000" stroke-linecap="square" stroke-width="2"/>
   <circle cx="128" cy="78" fill="#000000" r="2" stroke="none" stroke-width="2"/>
   <text fill="#000000" font-family="sans-serif" font-size="16" font-weight="bold" x="133" y="114">X2</text>
   <path d="M132,95 H156 V122 H132 V118 L128,108 L132,98 Z" fill="none" stroke="#000000" stroke-linecap="square" stroke-width="2"/>
   <circle cx="128" cy="108" fill="#000000" r="2" stroke="none" stroke-width="2"/>
   <text fill="#000000" font-family="sans-serif" font-size="16" font-weight="bold" x="133" y="144">X3</text>
   <path d="M132,125 H156 V152 H132 V148 L128,138 L132,128 Z" fill="none" stroke="#000000" stroke-linecap="square" stroke-width="2"/>
   <circle cx="128" cy="138" fill="#000000" r="2" stroke="none" stroke-width="2"/>
   <text fill="#000000" font-family="sans-serif" font-size="16" font-weight="bold" x="133" y="174">Y0</text>
   <path d="M132,155 H155 V182 H132 V178 L128,168 L132,158 Z" fill="none" stroke="#000000" stroke-linecap="square" stroke-width="2"/>
   <circle cx="128" cy="168" fill="#000000" r="2" stroke="none" stroke-width="2"/>
   <text fill="#000000" font-family="sans-serif" font-size="16" font-weight="bold" x="133" y="204">Y1</text>
   <path d="M132,185 H155 V212 H132 V208 L128,198 L132,188 Z" fill="none" stroke="#000000" stroke-linecap="square" stroke-width="2"/>
   <circle cx="128" cy="198" fill="#000000" r="2" stroke="none" stroke-width="2"/>
   <text fill="#000000" font-family="sans-serif" font-size="16" font-weight="bold" x="133" y="234">Y2</text>
   <path d="M132,215 H155 V242 H132 V238 L128,228 L132,218 Z" fill="none" stroke="#000000" stroke-linecap="square" stroke-width="2"/>
   <circle cx="128" cy="228" fill="#000000" r="2" stroke="none" stroke-width="2"/>
   <text fill="#000000" font-family="sans-serif" font-size="16" font-weight="bold" x="133" y="264">Y3</text>
   <path d="M132,245 H155 V272 H132 V268 L128,258 L132,248 Z" fill="none" stroke="#000000" stroke-linecap="square" stroke-width="2"/>
   <circle cx="128" cy="258" fill="#000000" r="2" stroke="none" stroke-width="2"/>
   <text fill="#000000" font-family="sans-serif" font-size="16" font-weight="bold" x="133" y="24">Bin</text>
   <path d="M132,5 H162 V32 H132 V28 L128,18 L132,8 Z" fill="none" stroke="#000000" stroke-linecap="square" stroke-width="2"/>
   <circle cx="128" cy="18" fill="#000000" r="2" stroke="none" stroke-width="2"/>
   <text fill="#000000" font-family="sans-serif" font-size="16" font-weight="bold" x="133" y="54">X0</text>
   <path d="M132,35 H156 V62 H132 V58 L128,48 L132,38 Z" fill="none" stroke="#000000" stroke-linecap="square" stroke-width="2"/>
   <circle cx="128" cy="48" fill="#000000" r="2" stroke="none" stroke-width="2"/>
   <text fill="#000000" font-family="sans-serif" font-size="16" font-weight="bold" x="177" y="94">Bin</text>
   <path d="M174,75 H205 V78 L209,88 L205,98 V102 H174 Z" fill="none" stroke="#000000" stroke-linecap="square" stroke-width="2"/>
   <circle cx="208" cy="88" fill="#000000" r="2" stroke="none" stroke-width="2"/>
   <text fill="#000000" font-family="sans-serif" font-size="16" font-weight="bold" x="183" y="154">X1</text>
   <path d="M180,135 H205 V138 L209,148 L205,158 V162 H180 Z" fill="none" stroke="#000000" stroke-linecap="square" stroke-width="2"/>
   <circle cx="208" cy="148" fill="#000000" r="2" stroke="none" stroke-width="2"/>
   <text fill="#000000" font-family="sans-serif" font-size="16" font-weight="bold" x="184" y="184">Y1</text>
   <path d="M181,165 H205 V168 L209,178 L205,188 V192 H181 Z" fill="none" stroke="#000000" stroke-linecap="square" stroke-width="2"/>
   <circle cx="208" cy="178" fill="#000000" r="2" stroke="none" stroke-width="2"/>
   <text fill="#000000" font-family="sans-serif" font-size="16" font-weight="bold" x="183" y="274">X2</text>
   <path d="M180,255 H205 V258 L209,268 L205,278 V282 H180 Z" fill="none" stroke="#000000" stroke-linecap="square" stroke-width="2"/>
   <circle cx="208" cy="268" fill="#000000" r="2" stroke="none" stroke-width="2"/>
   <text fill="#000000" font-family="sans-serif" font-size="16" font-weight="bold" x="184" y="304">Y2</text>
   <path d="M181,285 H205 V288 L209,298 L205,308 V312 H181 Z" fill="none" stroke="#000000" stroke-linecap="square" stroke-width="2"/>
   <circle cx="208" cy="298" fill="#000000" r="2" stroke="none" stroke-width="2"/>
   <text fill="#000000" font-family="sans-serif" font-size="16" font-weight="bold" x="183" y="394">X3</text>
   <path d="M180,375 H205 V378 L209,388 L205,398 V402 H180 Z" fill="none" stroke="#000000" stroke-linecap="square" stroke-width="2"/>
   <circle cx="208" cy="388" fill="#000000" r="2" stroke="none" stroke-width="2"/>
   <text fill="#000000" font-family="sans-serif" font-size="16" font-weight="bold" x="184" y="424">Y3</text>
   <path d="M181,405 H205 V408 L209,418 L205,428 V432 H181 Z" fill="none" stroke="#000000" stroke-linecap="square" stroke-width="2"/>
   <circle cx="208" cy="418" fill="#000000" r="2" stroke="none" stroke-width="2"/>
   <text fill="#000000" font-family="sans-serif" font-size="16" font-weight="bold" x="183" y="34">X0</text>
   <path d="M180,15 H205 V18 L209,28 L205,38 V42 H180 Z" fill="none" stroke="#000000" stroke-linecap="square" stroke-width="2"/>
   <circle cx="208" cy="28" fill="#000000" r="2" stroke="none" stroke-width="2"/>
   <text fill="#000000" font-family="sans-serif" font-size="16" font-weight="bold" x="184" y="64">Y0</text>
   <path d="M181,45 H205 V48 L209,58 L205,68 V72 H181 Z" fill="none" stroke="#000000" stroke-linecap="square" stroke-width="2"/>
   <circle cx="208" cy="58" fill="#000000" r="2" stroke="none" stroke-width="2"/>
   <path d="M448,28 H502" fill="none" stroke="#000000" stroke-linecap="square" stroke-width="3"/>
   <path d="M448,148 H468 V38 H502" fill="none" stroke="#000000" stroke-linecap="square" stroke-width="3"/>
   <path d="M448,268 H478 V48 H502" fill="none" stroke="#000000" stroke-linecap="square" stroke-width="3"/>
   <path d="M448,388 H488 V58 H502" fill="none" stroke="#000000" stroke-linecap="square" stroke-width="3"/>
   <path d="M502,57 V24 L507,19" fill="none" stroke="#000000" stroke-linecap="square" stroke-width="5"/>
   <text fill="#000000" font-family="sans-serif" font-size="7" x="495" y="25">0</text>
   <text fill="#000000" font-family="sans-serif" font-size="7" x="495" y="35">1</text>
   <text fill="#000000" font-family="sans-serif" font-size="7" x="495" y="45">2</text>
   <text fill="#000000" font-family="sans-serif" font-size="7" x="495" y="55">3</text>
   <circle cx="508" cy="18" fill="#000000" r="2" stroke="none" stroke-width="5"/>
   <circle cx="488" cy="28" fill="#000000" r="2" stroke="none" stroke-width="5"/>
   <circle cx="488" cy="38" fill="#000000" r="2" stroke="none" stroke-width="5"/>
   <circle cx="488" cy="48" fill="#000000" r="2" stroke="none" stroke-width="5"/>
   <circle cx="488" cy="58" fill="#000000" r="2" stroke="none" stroke-width="5"/>
   <rect fill="none" height="18" rx="3" ry="3" stroke="#000000" stroke-linecap="square" stroke-width="2" width="38" x="520" y="10"/>
   <text fill="#000000" font-family="sans-serif" font-size="12" x="532" y="25">x4</text>
   <text fill="#000000" font-family="sans-serif" font-size="16" font-weight="bold" x="560" y="26">D</text>
   <circle cx="518" cy="18" fill="#000000" r="2" stroke="none" stroke-width="2"/>
   <circle cx="529" cy="409" fill="none" r="9" stroke="#000000" stroke-width="2"/>
   <text fill="#000000" font-family="sans-serif" font-size="12" x="522" y="415">x1</text>
   <text fill="#000000" font-family="sans-serif" font-size="16" font-weight="bold" x="540" y="416">Bout</text>
   <circle cx="518" cy="408" fill="#000000" r="2" stroke="none" stroke-width="2"/>
   <rect fill="none" height="18" stroke="#000000" stroke-linecap="square" stroke-width="2" width="38" x="20" y="80"/>
   <text fill="#000000" font-family="sans-serif" font-size="12" x="32" y="95">x4</text>
   <text fill="#000000" font-family="sans-serif" font-size="16" font-weight="bold" x="5" y="96">X</text>
   <circle cx="58" cy="88" fill="#000000" r="2" stroke="none" stroke-width="2"/>
   <rect fill="none" height="18" stroke="#000000" stroke-linecap="square" stroke-width="2" width="38" x="20" y="200"/>
   <text fill="#000000" font-family="sans-serif" font-size="12" x="32" y="215">x4</text>
   <text fill="#000000" font-family="sans-serif" font-size="16" font-weight="bold" x="6" y="216">Y</text>
   <circle cx="58" cy="208" fill="#000000" r="2" stroke="none" stroke-width="2"/>
   <rect fill="none" height="18" stroke="#000000" stroke-linecap="square" stroke-width="2" width="18" x="40" y="10"/>
   <text fill="#000000" font-family="sans-serif" font-size="12" x="42" y="25">x1</text>
   <text fill="#000000" font-family="sans-serif" font-size="16" font-weight="bold" x="10" y="26">Bin</text>
   <circle cx="58" cy="18" fill="#000000" r="2" stroke="none" stroke-width="2"/>
   <path d="M128,48 H84" fill="none" stroke="#000000" stroke-linecap="square" stroke-width="3"/>
   <path d="M128,78 H118 V58 H84" fill="none" stroke="#000000" stroke-linecap="square" stroke-width="3"/>
   <path d="M128,108 H108 V68 H84" fill="none" stroke="#000000" stroke-linecap="square" stroke-width="3"/>
   <path d="M128,138 H98 V78 H84" fill="none" stroke="#000000" stroke-linecap="square" stroke-width="3"/>
   <path d="M84,49 V82 L79,87" fill="none" stroke="#000000" stroke-linecap="square" stroke-width="5"/>
   <text fill="#000000" font-family="sans-serif" font-size="7" x="87" y="56">0</text>
   <text fill="#000000" font-family="sans-serif" font-size="7" x="87" y="66">1</text>
   <text fill="#000000" font-family="sans-serif" font-size="7" x="87" y="76">2</text>
   <text fill="#000000" font-family="sans-serif" font-size="7" x="87" y="86">3</text>
   <circle cx="78" cy="88" fill="#000000" r="2" stroke="none" stroke-width="5"/>
   <circle cx="98" cy="48" fill="#000000" r="2" stroke="none" stroke-width="5"/>
   <circle cx="98" cy="58" fill="#000000" r="2" stroke="none" stroke-width="5"/>
   <circle cx="98" cy="68" fill="#000000" r="2" stroke="none" stroke-width="5"/>
   <circle cx="98" cy="78" fill="#000000" r="2" stroke="none" stroke-width="5"/>
   <path d="M128,168 H84" fill="none" stroke="#000000" stroke-linecap="square" stroke-width="3"/>
   <path d="M128,198 H118 V178 H84" fill="none" stroke="#000000" stroke-linecap="square" stroke-width="3"/>
   <path d="M128,228 H108 V188 H84" fill="none" stroke="#000000" stroke-linecap="square" stroke-width="3"/>
   <path d="M128,258 H98 V198 H84" fill="none" stroke="#000000" stroke-linecap="square" stroke-width="3"/>
   <path d="M84,169 V202 L79,207" fill="none" stroke="#000000" stroke-linecap="square" stroke-width="5"/>
   <text fill="#000000" font-family="sans-serif" font-size="7" x="87" y="176">0</text>
   <text fill="#000000" font-family="sans-serif" font-size="7" x="87" y="186">1</text>
   <text fill="#000000" font-family="sans-serif" font-size="7" x="87" y="196">2</text>
   <text fill="#000000" font-family="sans-serif" font-size="7" x="87" y="206">3</text>
   <circle cx="78" cy="208" fill="#000000" r="2" stroke="none" stroke-width="5"/>
   <circle cx="98" cy="168" fill="#000000" r="2" stroke="none" stroke-width="5"/>
   <circle cx="98" cy="178" fill="#000000" r="2" stroke="none" stroke-width="5"/>
   <circle cx="98" cy="188" fill="#000000" r="2" stroke="none" stroke-width="5"/>
   <circle cx="98" cy="198" fill="#000000" r="2" stroke="none" stroke-width="5"/>
   <rect fill="#000000" height="3" stroke="none" stroke-linecap="square" stroke-width="1" width="10" x="228" y="147"/>
   <text fill="#404040" font-family="Dialog" font-size="12" x="243" y="152">X</text>
   <rect fill="#000000" height="3" stroke="none" stroke-linecap="square" stroke-width="1" width="10" x="228" y="167"/>
   <text fill="#404040" font-family="Dialog" font-size="12" x="243" y="172">Y</text>
   <rect fill="#000000" height="3" stroke="none" stroke-linecap="square" stroke-width="1" width="10" x="228" y="187"/>
   <text fill="#404040" font-family="Dialog" font-size="12" x="243" y="192">Bin</text>
   <rect fill="#000000" height="3" stroke="none" stroke-linecap="square" stroke-width="1" width="10" x="438" y="147"/>
   <text fill="#404040" font-family="Dialog" font-size="12" x="424" y="152">D</text>
   <rect fill="#000000" height="3" stroke="none" stroke-linecap="square" stroke-width="1" width="10" x="438" y="167"/>
   <text fill="#404040" font-family="Dialog" font-size="12" x="408" y="172">Bout</text>
   <rect fill="#000000" height="20" stroke="none" stroke-linecap="square" stroke-width="1" width="200" x="238" y="198"/>
   <rect fill="none" height="80" stroke="#000000" stroke-linecap="square" stroke-width="2" width="200" x="238" y="138"/>
   <text fill="#FFFFFF" font-family="Dialog" font-size="14" font-weight="bold" x="280" y="212">Full_Substractor</text>
   <circle cx="228" cy="148" fill="#000000" r="2" stroke="none" stroke-width="1"/>
   <circle cx="228" cy="168" fill="#000000" r="2" stroke="none" stroke-width="1"/>
   <circle cx="228" cy="188" fill="#000000" r="2" stroke="none" stroke-width="1"/>
   <circle cx="448" cy="148" fill="#000000" r="2" stroke="none" stroke-width="1"/>
   <circle cx="448" cy="168" fill="#000000" r="2" stroke="none" stroke-width="1"/>
   <rect fill="#000000" height="3" stroke="none" stroke-linecap="square" stroke-width="1" width="10" x="228" y="267"/>
   <text fill="#404040" font-family="Dialog" font-size="12" x="243" y="272">X</text>
   <rect fill="#000000" height="3" stroke="none" stroke-linecap="square" stroke-width="1" width="10" x="228" y="287"/>
   <text fill="#404040" font-family="Dialog" font-size="12" x="243" y="292">Y</text>
   <rect fill="#000000" height="3" stroke="none" stroke-linecap="square" stroke-width="1" width="10" x="228" y="307"/>
   <text fill="#404040" font-family="Dialog" font-size="12" x="243" y="312">Bin</text>
   <rect fill="#000000" height="3" stroke="none" stroke-linecap="square" stroke-width="1" width="10" x="438" y="267"/>
   <text fill="#404040" font-family="Dialog" font-size="12" x="424" y="272">D</text>
   <rect fill="#000000" height="3" stroke="none" stroke-linecap="square" stroke-width="1" width="10" x="438" y="287"/>
   <text fill="#404040" font-family="Dialog" font-size="12" x="408" y="292">Bout</text>
   <rect fill="#000000" height="20" stroke="none" stroke-linecap="square" stroke-width="1" width="200" x="238" y="318"/>
   <rect fill="none" height="80" stroke="#000000" stroke-linecap="square" stroke-width="2" width="200" x="238" y="258"/>
   <text fill="#FFFFFF" font-family="Dialog" font-size="14" font-weight="bold" x="280" y="332">Full_Substractor</text>
   <circle cx="228" cy="268" fill="#000000" r="2" stroke="none" stroke-width="1"/>
   <circle cx="228" cy="288" fill="#000000" r="2" stroke="none" stroke-width="1"/>
   <circle cx="228" cy="308" fill="#000000" r="2" stroke="none" stroke-width="1"/>
   <circle cx="448" cy="268" fill="#000000" r="2" stroke="none" stroke-width="1"/>
   <circle cx="448" cy="288" fill="#000000" r="2" stroke="none" stroke-width="1"/>
   <rect fill="#000000" height="3" stroke="none" stroke-linecap="square" stroke-width="1" width="10" x="228" y="387"/>
   <text fill="#404040" font-family="Dialog" font-size="12" x="243" y="392">X</text>
   <rect fill="#000000" height="3" stroke="none" stroke-linecap="square" stroke-width="1" width="10" x="228" y="407"/>
   <text fill="#404040" font-family="Dialog" font-size="12" x="243" y="412">Y</text>
   <rect fill="#000000" height="3" stroke="none" stroke-linecap="square" stroke-width="1" width="10" x="228" y="427"/>
   <text fill="#404040" font-family="Dialog" font-size="12" x="243" y="432">Bin</text>
   <rect fill="#000000" height="3" stroke="none" stroke-linecap="square" stroke-width="1" width="10" x="438" y="387"/>
   <text fill="#404040" font-family="Dialog" font-size="12" x="424" y="392">D</text>
   <rect fill="#000000" height="3" stroke="none" stroke-linecap="square" stroke-width="1" width="10" x="438" y="407"/>
   <text fill="#404040" font-family="Dialog" font-size="12" x="408" y="412">Bout</text>
   <rect fill="#000000" height="20" stroke="none" stroke-linecap="square" stroke-width="1" width="200" x="238" y="438"/>
   <rect fill="none" height="80" stroke="#000000" stroke-linecap="square" stroke-width="2" width="200" x="238" y="378"/>
   <text fill="#FFFFFF" font-family="Dialog" font-size="14" font-weight="bold" x="280" y="452">Full_Substractor</text>
   <circle cx="228" cy="388" fill="#000000" r="2" stroke="none" stroke-width="1"/>
   <circle cx="228" cy="408" fill="#000000" r="2" stroke="none" stroke-width="1"/>
   <circle cx="228" cy="428" fill="#000000" r="2" stroke="none" stroke-width="1"/>
   <circle cx="448" cy="388" fill="#000000" r="2" stroke="none" stroke-width="1"/>
   <circle cx="448" cy="408" fill="#000000" r="2" stroke="none" stroke-width="1"/>
   <rect fill="#000000" height="3" stroke="none" stroke-linecap="square" stroke-width="1" width="10" x="228" y="27"/>
   <text fill="#404040" font-family="Dialog" font-size="12" x="243" y="32">X</text>
   <rect fill="#000000" height="3" stroke="none" stroke-linecap="square" stroke-width="1" width="10" x="228" y="47"/>
   <text fill="#404040" font-family="Dialog" font-size="12" x="243" y="52">Y</text>
   <rect fill="#000000" height="3" stroke="none" stroke-linecap="square" stroke-width="1" width="10" x="228" y="67"/>
   <text fill="#404040" font-family="Dialog" font-size="12" x="243" y="72">Bin</text>
   <rect fill="#000000" height="3" stroke="none" stroke-linecap="square" stroke-width="1" width="10" x="438" y="27"/>
   <text fill="#404040" font-family="Dialog" font-size="12" x="424" y="32">D</text>
   <rect fill="#000000" height="3" stroke="none" stroke-linecap="square" stroke-width="1" width="10" x="438" y="47"/>
   <text fill="#404040" font-family="Dialog" font-size="12" x="408" y="52">Bout</text>
   <rect fill="#000000" height="20" stroke="none" stroke-linecap="square" stroke-width="1" width="200" x="238" y="78"/>
   <rect fill="none" height="80" stroke="#000000" stroke-linecap="square" stroke-width="2" width="200" x="238" y="18"/>
   <text fill="#FFFFFF" font-family="Dialog" font-size="14" font-weight="bold" x="280" y="92">Full_Substractor</text>
   <circle cx="228" cy="28" fill="#000000" r="2" stroke="none" stroke-width="1"/>
   <circle cx="228" cy="48" fill="#000000" r="2" stroke="none" stroke-width="1"/>
   <circle cx="228" cy="68" fill="#000000" r="2" stroke="none" stroke-width="1"/>
   <circle cx="448" cy="28" fill="#000000" r="2" stroke="none" stroke-width="1"/>
   <circle cx="448" cy="48" fill="#000000" r="2" stroke="none" stroke-width="1"/>
</svg>
