<?xml version="1.0" encoding="UTF-8" standalone="no"?>
<svg xmlns="http://www.w3.org/2000/svg" height="145" version="1.1" viewBox="0 0 515 145" width="515">
   <path d="M429,75 H479" fill="none" stroke="#000000" stroke-linecap="square" stroke-width="3"/>
   <path d="M99,15 V95 H249" fill="none" stroke="#000000" stroke-linecap="square" stroke-width="3"/>
   <path d="M129,55 V135 H249" fill="none" stroke="#000000" stroke-linecap="square" stroke-width="3"/>
   <circle cx="99" cy="15" fill="#000000" r="5" stroke="none" stroke-width="3"/>
   <circle cx="129" cy="55" fill="#000000" r="5" stroke="none" stroke-width="3"/>
   <rect fill="none" height="18" stroke="#000000" stroke-linecap="square" stroke-width="2" width="18" x="21" y="7"/>
   <text fill="#000000" font-family="sans-serif" font-size="12" x="23" y="22">x1</text>
   <text fill="#000000" font-family="sans-serif" font-size="16" font-weight="bold" x="6" y="23">A</text>
   <circle cx="39" cy="15" fill="#000000" r="2" stroke="none" stroke-width="2"/>
   <rect fill="none" height="18" stroke="#000000" stroke-linecap="square" stroke-width="2" width="18" x="21" y="47"/>
   <text fill="#000000" font-family="sans-serif" font-size="12" x="23" y="62">x1</text>
   <text fill="#000000" font-family="sans-serif" font-size="16" font-weight="bold" x="5" y="63">B</text>
   <circle cx="39" cy="55" fill="#000000" r="2" stroke="none" stroke-width="2"/>
   <circle cx="490" cy="76" fill="none" r="9" stroke="#000000" stroke-width="2"/>
   <text fill="#000000" font-family="sans-serif" font-size="12" x="483" y="82">x1</text>
   <text fill="#000000" font-family="sans-serif" font-size="16" font-weight="bold" x="501" y="83">Z</text>
   <circle cx="479" cy="75" fill="#000000" r="2" stroke="none" stroke-width="2"/>
   <path d="M274,140 A25,25 90 0,0 274,90" fill="none" stroke="#000000" stroke-width="2"/>
   <path d="M274,90 H250 V140 H274" fill="none" stroke="#000000" stroke-linecap="square" stroke-width="2"/>
   <path d="M39,15 H249" fill="none" stroke="#000000" stroke-linecap="square" stroke-width="3"/>
   <path d="M39,55 H249" fill="none" stroke="#000000" stroke-linecap="square" stroke-width="3"/>
   <path d="M299,35 Q279,10 249,10 Q262,35 249,60 Q279,60 299,35 Z" fill="none" stroke="#000000" stroke-linecap="square" stroke-width="2"/>
   <circle cx="304" cy="35" fill="none" r="4.5" stroke="#000000" stroke-width="2"/>
   <path d="M309,35 H369 V55" fill="none" stroke="#000000" stroke-linecap="square" stroke-width="3"/>
   <path d="M299,115 H369 V95" fill="none" stroke="#000000" stroke-linecap="square" stroke-width="3"/>
   <path d="M419,75 Q399,50 369,50 Q382,75 369,100 Q399,100 419,75 Z" fill="none" stroke="#000000" stroke-linecap="square" stroke-width="2"/>
   <circle cx="424" cy="75" fill="none" r="4.5" stroke="#000000" stroke-width="2"/>
</svg>
